{"asset":{"version":"2.0","generator":"babylon.js glTF exporter for 3dsmax 2019 v1.5.0","extensions":{"ASOBO_normal_map_convention":{"tangent_space_convention":"DirectX"}}},"extensionsUsed":["ASOBO_normal_map_convention","ASOBO_animation_retargeting","ASOBO_macro_light"],"scene":0,"scenes":[{"nodes":[0],"extensions":{}}],"nodes":[{"children":[1,4,5,6,7,9,11,13,15,16,17,18,19],"translation":[0.0,0.0,0.0],"rotation":[0.0,0.0,0.0,1.0],"scale":[1.0,1.0,1.0],"name":"SOL","extensions":{"ASOBO_animation_retargeting":{"id":"SOL"}}},{"children":[2],"translation":[0.0,1.35827959,-2.71682644],"rotation":[0.0703595653,0.0,0.0,0.9975217],"scale":[1.0,1.0,1.0],"name":"Rotation_CTRL","extensions":{"ASOBO_animation_retargeting":{"id":"Rotation_CTRL"}}},{"children":[3],"translation":[0.0,0.372752547,-0.03481269],"rotation":[0.445339,0.0,0.0,0.895362],"scale":[1.0,0.999999762,0.999999762],"name":"Deployment_CTRL","extensions":{"ASOBO_animation_retargeting":{"id":"Deployment_CTRL"}}},{"translation":[0.0,6.260292,2.65373564],"rotation":[-0.445339054,0.0,0.0,0.895362],"scale":[1.0,1.00000024,1.00000024],"name":"TARGET_DOOR","extensions":{"ASOBO_animation_retargeting":{"id":"TARGET_DOOR"}}},{"translation":[0.0,1.935182,1.0919714],"rotation":[-0.126718327,0.0,0.0,0.99193877],"scale":[1.0,1.0,1.0],"name":"Pistons_2_CTRL","extensions":{"ASOBO_animation_retargeting":{"id":"Pistons_2_CTRL"}}},{"translation":[0.0,0.402,-1.379],"rotation":[-1.14440918E-05,0.0,0.0,1.0],"scale":[1.0,1.0,1.0],"name":"Wheel_BACK_Ctrl","extensions":{"ASOBO_animation_retargeting":{"id":"Wheel_BACK_Ctrl"}}},{"translation":[-0.317009032,0.288653731,2.45944452],"rotation":[0.0,0.0,0.0,1.0],"scale":[1.0,1.0,1.0],"name":"PILOT_0","extensions":{"ASOBO_animation_retargeting":{"id":"PILOT_0"}}},{"children":[8],"translation":[1.211,0.402,1.63999987],"rotation":[-1.14440918E-05,4.065758E-20,-3.55271368E-15,1.0],"scale":[1.0,1.0,1.0],"name":"Wheel_LEFT_FRONT_Ctrl001","extensions":{"ASOBO_animation_retargeting":{"id":"Wheel_LEFT_FRONT_Ctrl001"}}},{"translation":[0.0,0.0,1.1920929E-07],"rotation":[-1.14440918E-05,0.0,0.0,1.0],"scale":[1.0,1.0,1.0],"name":"Wheel_LEFT_FRONT_Ctrl","extensions":{"ASOBO_animation_retargeting":{"id":"Wheel_LEFT_FRONT_Ctrl"}}},{"children":[10],"translation":[-1.211,0.402,1.63999987],"rotation":[0.0,0.0,-1.42108547E-14,1.0],"scale":[1.0,1.0,1.0],"name":"Wheel_RIGHT_FRONT_Ctrl001","extensions":{"ASOBO_animation_retargeting":{"id":"Wheel_RIGHT_FRONT_Ctrl001"}}},{"translation":[0.0,0.0,0.0],"rotation":[-2.38418579E-07,0.0,0.0,1.0],"scale":[1.0,1.0,1.0],"name":"Wheel_RIGHT_FRONT_Ctrl","extensions":{"ASOBO_animation_retargeting":{"id":"Wheel_RIGHT_FRONT_Ctrl"}}},{"children":[12],"translation":[-0.782557845,1.93066835,2.04514623],"rotation":[0.0,0.0,0.0,1.0],"scale":[1.0,1.0,1.0],"name":"Gyrolight_Ctrl001","extensions":{"ASOBO_animation_retargeting":{"id":"Gyrolight_Ctrl001"}}},{"translation":[0.0,2.38418579E-07,0.0],"rotation":[-0.6830128,-0.183012664,-0.1830127,0.6830127],"scale":[1.0,1.0,1.0],"name":"Gyrolight_O1","extensions":{"ASOBO_macro_light":{"color":[1.0,0.5884637,1E-06],"intensity":50.0,"cone_angle":120.0,"has_simmetry":false,"flash_frequency":0.0,"day_night_cycle":false},"ASOBO_animation_retargeting":{"id":"Gyrolight_O1"}}},{"children":[14],"translation":[0.786193,1.93066835,2.04514623],"rotation":[0.0,0.0,0.0,1.0],"scale":[1.0,1.0,1.0],"name":"Gyrolight_Ctrl002","extensions":{"ASOBO_animation_retargeting":{"id":"Gyrolight_Ctrl002"}}},{"translation":[0.0,0.0,0.0],"rotation":[-0.6830128,0.183012709,0.183012709,0.6830126],"scale":[1.0,1.0,1.0],"name":"Gyrolight_O2","extensions":{"ASOBO_macro_light":{"color":[1.0,0.5884637,1E-06],"intensity":50.0,"cone_angle":120.0,"has_simmetry":false,"flash_frequency":0.0,"day_night_cycle":false},"ASOBO_animation_retargeting":{"id":"Gyrolight_O2"}}},{"translation":[0.0,1.913487,1.09760618],"rotation":[-0.126718327,0.0,0.0,0.99193877],"scale":[1.0,1.00000024,1.00000024],"name":"Pistons_1_CTRL","extensions":{"ASOBO_animation_retargeting":{"id":"Pistons_1_CTRL"}}},{"translation":[-0.7641349,0.374503374,3.79103136],"rotation":[-0.7071068,0.0,0.0,0.7071067],"scale":[1.0,1.0,1.0],"name":"Headlight_R","extensions":{"ASOBO_macro_light":{"color":[1.0,0.976548731,0.735647857],"intensity":50.0,"cone_angle":120.0,"has_simmetry":false,"flash_frequency":0.0,"day_night_cycle":false},"ASOBO_animation_retargeting":{"id":"Headlight_R"}}},{"translation":[0.75177,0.374503374,3.79103136],"rotation":[-0.7071068,0.0,0.0,0.7071067],"scale":[1.0,1.0,1.0],"name":"Headlight_L","extensions":{"ASOBO_macro_light":{"color":[1.0,0.976548731,0.735647857],"intensity":50.0,"cone_angle":120.0,"has_simmetry":false,"flash_frequency":0.0,"day_night_cycle":false},"ASOBO_animation_retargeting":{"id":"Headlight_L"}}},{"translation":[-1.11672032,0.342846155,-4.41372252],"rotation":[0.70710665,0.0,0.0,0.7071069],"scale":[1.0,1.0,1.0],"name":"Backlight_R","extensions":{"ASOBO_macro_light":{"color":[1.0,0.0472351052,1E-06],"intensity":30.0,"cone_angle":90.0,"has_simmetry":false,"flash_frequency":0.0,"day_night_cycle":false},"ASOBO_animation_retargeting":{"id":"Backlight_R"}}},{"translation":[1.10858476,0.3450115,-4.413722],"rotation":[0.70710665,0.0,0.0,0.7071069],"scale":[1.0,1.0,1.0],"name":"Backlight_L","extensions":{"ASOBO_macro_light":{"color":[1.0,0.0472351052,1E-06],"intensity":30.0,"cone_angle":90.0,"has_simmetry":false,"flash_frequency":0.0,"day_night_cycle":false},"ASOBO_animation_retargeting":{"id":"Backlight_L"}}}],"accessors":[{"bufferView":0,"componentType":5126,"count":2,"max":[3.33333325],"min":[0.0],"type":"SCALAR","name":"accessorAnimationInput"},{"bufferView":1,"componentType":5126,"count":2,"type":"VEC3","name":"accessorAnimationScales"},{"bufferView":0,"byteOffset":8,"componentType":5126,"count":101,"max":[3.33333325],"min":[0.0],"type":"SCALAR","name":"accessorAnimationInput"},{"bufferView":1,"byteOffset":24,"componentType":5126,"count":101,"type":"VEC3","name":"accessorAnimationPositions"},{"bufferView":0,"byteOffset":412,"componentType":5126,"count":101,"max":[3.33333325],"min":[0.0],"type":"SCALAR","name":"accessorAnimationInput"},{"bufferView":2,"componentType":5126,"count":101,"type":"VEC4","name":"accessorAnimationRotations"},{"bufferView":0,"byteOffset":816,"componentType":5126,"count":101,"max":[3.33333325],"min":[0.0],"type":"SCALAR","name":"accessorAnimationInput"},{"bufferView":1,"byteOffset":1236,"componentType":5126,"count":101,"type":"VEC3","name":"accessorAnimationScales"},{"bufferView":0,"byteOffset":1220,"componentType":5126,"count":101,"max":[3.33333325],"min":[0.0],"type":"SCALAR","name":"accessorAnimationInput"},{"bufferView":1,"byteOffset":2448,"componentType":5126,"count":101,"type":"VEC3","name":"accessorAnimationPositions"},{"bufferView":0,"byteOffset":1624,"componentType":5126,"count":101,"max":[3.33333325],"min":[0.0],"type":"SCALAR","name":"accessorAnimationInput"},{"bufferView":2,"byteOffset":1616,"componentType":5126,"count":101,"type":"VEC4","name":"accessorAnimationRotations"},{"bufferView":0,"byteOffset":2028,"componentType":5126,"count":101,"max":[3.33333325],"min":[0.0],"type":"SCALAR","name":"accessorAnimationInput"},{"bufferView":1,"byteOffset":3660,"componentType":5126,"count":101,"type":"VEC3","name":"accessorAnimationScales"},{"bufferView":0,"byteOffset":2432,"componentType":5126,"count":101,"max":[3.33333325],"min":[0.0],"type":"SCALAR","name":"accessorAnimationInput"},{"bufferView":1,"byteOffset":4872,"componentType":5126,"count":101,"type":"VEC3","name":"accessorAnimationPositions"},{"bufferView":0,"byteOffset":2836,"componentType":5126,"count":101,"max":[3.33333325],"min":[0.0],"type":"SCALAR","name":"accessorAnimationInput"},{"bufferView":2,"byteOffset":3232,"componentType":5126,"count":101,"type":"VEC4","name":"accessorAnimationRotations"},{"bufferView":0,"byteOffset":3240,"componentType":5126,"count":101,"max":[3.33333325],"min":[0.0],"type":"SCALAR","name":"accessorAnimationInput"},{"bufferView":1,"byteOffset":6084,"componentType":5126,"count":101,"type":"VEC3","name":"accessorAnimationScales"},{"bufferView":0,"byteOffset":3644,"componentType":5126,"count":2,"max":[3.33333325],"min":[0.0],"type":"SCALAR","name":"accessorAnimationInput"},{"bufferView":1,"byteOffset":7296,"componentType":5126,"count":2,"type":"VEC3","name":"accessorAnimationScales"},{"bufferView":0,"byteOffset":3652,"componentType":5126,"count":101,"max":[3.33333325],"min":[0.0],"type":"SCALAR","name":"accessorAnimationInput"},{"bufferView":1,"byteOffset":7320,"componentType":5126,"count":101,"type":"VEC3","name":"accessorAnimationPositions"},{"bufferView":0,"byteOffset":4056,"componentType":5126,"count":101,"max":[3.33333325],"min":[0.0],"type":"SCALAR","name":"accessorAnimationInput"},{"bufferView":2,"byteOffset":4848,"componentType":5126,"count":101,"type":"VEC4","name":"accessorAnimationRotations"},{"bufferView":0,"byteOffset":4460,"componentType":5126,"count":101,"max":[3.33333325],"min":[0.0],"type":"SCALAR","name":"accessorAnimationInput"},{"bufferView":1,"byteOffset":8532,"componentType":5126,"count":101,"type":"VEC3","name":"accessorAnimationScales"},{"bufferView":0,"byteOffset":4864,"componentType":5126,"count":2,"max":[1.6],"min":[0.0],"type":"SCALAR","name":"accessorAnimationInput"},{"bufferView":1,"byteOffset":9744,"componentType":5126,"count":2,"type":"VEC3","name":"accessorAnimationScales"},{"bufferView":0,"byteOffset":4872,"componentType":5126,"count":49,"max":[1.6],"min":[0.0],"type":"SCALAR","name":"accessorAnimationInput"},{"bufferView":1,"byteOffset":9768,"componentType":5126,"count":49,"type":"VEC3","name":"accessorAnimationPositions"},{"bufferView":0,"byteOffset":5068,"componentType":5126,"count":49,"max":[1.6],"min":[0.0],"type":"SCALAR","name":"accessorAnimationInput"},{"bufferView":2,"byteOffset":6464,"componentType":5126,"count":49,"type":"VEC4","name":"accessorAnimationRotations"},{"bufferView":0,"byteOffset":5264,"componentType":5126,"count":49,"max":[1.6],"min":[0.0],"type":"SCALAR","name":"accessorAnimationInput"},{"bufferView":1,"byteOffset":10356,"componentType":5126,"count":49,"type":"VEC3","name":"accessorAnimationScales"},{"bufferView":0,"byteOffset":5460,"componentType":5126,"count":49,"max":[1.6],"min":[0.0],"type":"SCALAR","name":"accessorAnimationInput"},{"bufferView":1,"byteOffset":10944,"componentType":5126,"count":49,"type":"VEC3","name":"accessorAnimationPositions"},{"bufferView":0,"byteOffset":5656,"componentType":5126,"count":49,"max":[1.6],"min":[0.0],"type":"SCALAR","name":"accessorAnimationInput"},{"bufferView":2,"byteOffset":7248,"componentType":5126,"count":49,"type":"VEC4","name":"accessorAnimationRotations"},{"bufferView":0,"byteOffset":5852,"componentType":5126,"count":49,"max":[1.6],"min":[0.0],"type":"SCALAR","name":"accessorAnimationInput"},{"bufferView":1,"byteOffset":11532,"componentType":5126,"count":49,"type":"VEC3","name":"accessorAnimationScales"},{"bufferView":0,"byteOffset":6048,"componentType":5126,"count":49,"max":[1.6],"min":[0.0],"type":"SCALAR","name":"accessorAnimationInput"},{"bufferView":1,"byteOffset":12120,"componentType":5126,"count":49,"type":"VEC3","name":"accessorAnimationPositions"},{"bufferView":0,"byteOffset":6244,"componentType":5126,"count":49,"max":[1.6],"min":[0.0],"type":"SCALAR","name":"accessorAnimationInput"},{"bufferView":2,"byteOffset":8032,"componentType":5126,"count":49,"type":"VEC4","name":"accessorAnimationRotations"},{"bufferView":0,"byteOffset":6440,"componentType":5126,"count":49,"max":[1.6],"min":[0.0],"type":"SCALAR","name":"accessorAnimationInput"},{"bufferView":1,"byteOffset":12708,"componentType":5126,"count":49,"type":"VEC3","name":"accessorAnimationScales"},{"bufferView":0,"byteOffset":6636,"componentType":5126,"count":2,"max":[1.66666663],"min":[0.0],"type":"SCALAR","name":"accessorAnimationInput"},{"bufferView":1,"byteOffset":13296,"componentType":5126,"count":2,"type":"VEC3","name":"accessorAnimationScales"},{"bufferView":0,"byteOffset":6644,"componentType":5126,"count":51,"max":[1.66666663],"min":[0.0],"type":"SCALAR","name":"accessorAnimationInput"},{"bufferView":1,"byteOffset":13320,"componentType":5126,"count":51,"type":"VEC3","name":"accessorAnimationPositions"},{"bufferView":0,"byteOffset":6848,"componentType":5126,"count":51,"max":[1.66666663],"min":[0.0],"type":"SCALAR","name":"accessorAnimationInput"},{"bufferView":2,"byteOffset":8816,"componentType":5126,"count":51,"type":"VEC4","name":"accessorAnimationRotations"},{"bufferView":0,"byteOffset":7052,"componentType":5126,"count":51,"max":[1.66666663],"min":[0.0],"type":"SCALAR","name":"accessorAnimationInput"},{"bufferView":1,"byteOffset":13932,"componentType":5126,"count":51,"type":"VEC3","name":"accessorAnimationScales"},{"bufferView":0,"byteOffset":7256,"componentType":5126,"count":51,"max":[1.66666663],"min":[0.0],"type":"SCALAR","name":"accessorAnimationInput"},{"bufferView":1,"byteOffset":14544,"componentType":5126,"count":51,"type":"VEC3","name":"accessorAnimationPositions"},{"bufferView":0,"byteOffset":7460,"componentType":5126,"count":51,"max":[1.66666663],"min":[0.0],"type":"SCALAR","name":"accessorAnimationInput"},{"bufferView":2,"byteOffset":9632,"componentType":5126,"count":51,"type":"VEC4","name":"accessorAnimationRotations"},{"bufferView":0,"byteOffset":7664,"componentType":5126,"count":51,"max":[1.66666663],"min":[0.0],"type":"SCALAR","name":"accessorAnimationInput"},{"bufferView":1,"byteOffset":15156,"componentType":5126,"count":51,"type":"VEC3","name":"accessorAnimationScales"},{"bufferView":0,"byteOffset":7868,"componentType":5126,"count":50,"max":[1.63333333],"min":[0.0],"type":"SCALAR","name":"accessorAnimationInput"},{"bufferView":2,"byteOffset":10448,"componentType":5126,"count":50,"type":"VEC4","name":"accessorAnimationRotations"},{"bufferView":0,"byteOffset":8068,"componentType":5126,"count":50,"max":[1.63333333],"min":[0.0],"type":"SCALAR","name":"accessorAnimationInput"},{"bufferView":2,"byteOffset":11248,"componentType":5126,"count":50,"type":"VEC4","name":"accessorAnimationRotations"}],"bufferViews":[{"buffer":0,"byteLength":8268,"name":"bufferViewAnimationFloatScalar"},{"buffer":0,"byteOffset":8268,"byteLength":15768,"name":"bufferViewAnimationFloatVec3"},{"buffer":0,"byteOffset":24036,"byteLength":12048,"name":"bufferViewAnimationFloatVec4"}],"buffers":[{"uri":"Boarding_Stairs.bin","byteLength":36084}],"animations":[{"channels":[{"sampler":0,"target":{"node":0,"path":"scale","extensions":{"ASOBO_animation_retargeting":{"id":"SOL"}}}},{"sampler":1,"target":{"node":15,"path":"translation","extensions":{"ASOBO_animation_retargeting":{"id":"Pistons_1_CTRL"}}}},{"sampler":2,"target":{"node":15,"path":"rotation","extensions":{"ASOBO_animation_retargeting":{"id":"Pistons_1_CTRL"}}}},{"sampler":3,"target":{"node":15,"path":"scale","extensions":{"ASOBO_animation_retargeting":{"id":"Pistons_1_CTRL"}}}},{"sampler":4,"target":{"node":4,"path":"translation","extensions":{"ASOBO_animation_retargeting":{"id":"Pistons_2_CTRL"}}}},{"sampler":5,"target":{"node":4,"path":"rotation","extensions":{"ASOBO_animation_retargeting":{"id":"Pistons_2_CTRL"}}}},{"sampler":6,"target":{"node":4,"path":"scale","extensions":{"ASOBO_animation_retargeting":{"id":"Pistons_2_CTRL"}}}},{"sampler":7,"target":{"node":1,"path":"translation","extensions":{"ASOBO_animation_retargeting":{"id":"Rotation_CTRL"}}}},{"sampler":8,"target":{"node":1,"path":"rotation","extensions":{"ASOBO_animation_retargeting":{"id":"Rotation_CTRL"}}}},{"sampler":9,"target":{"node":1,"path":"scale","extensions":{"ASOBO_animation_retargeting":{"id":"Rotation_CTRL"}}}}],"samplers":[{"input":0,"interpolation":"LINEAR","output":1},{"input":2,"interpolation":"LINEAR","output":3},{"input":4,"interpolation":"LINEAR","output":5},{"input":6,"interpolation":"LINEAR","output":7},{"input":8,"interpolation":"LINEAR","output":9},{"input":10,"interpolation":"LINEAR","output":11},{"input":12,"interpolation":"LINEAR","output":13},{"input":14,"interpolation":"LINEAR","output":15},{"input":16,"interpolation":"LINEAR","output":17},{"input":18,"interpolation":"LINEAR","output":19}],"name":"Elevation"},{"channels":[{"sampler":0,"target":{"node":0,"path":"scale","extensions":{"ASOBO_animation_retargeting":{"id":"SOL"}}}},{"sampler":1,"target":{"node":2,"path":"translation","extensions":{"ASOBO_animation_retargeting":{"id":"Deployment_CTRL"}}}},{"sampler":2,"target":{"node":2,"path":"rotation","extensions":{"ASOBO_animation_retargeting":{"id":"Deployment_CTRL"}}}},{"sampler":3,"target":{"node":2,"path":"scale","extensions":{"ASOBO_animation_retargeting":{"id":"Deployment_CTRL"}}}}],"samplers":[{"input":20,"interpolation":"LINEAR","output":21},{"input":22,"interpolation":"LINEAR","output":23},{"input":24,"interpolation":"LINEAR","output":25},{"input":26,"interpolation":"LINEAR","output":27}],"name":"Deployment"},{"channels":[{"sampler":0,"target":{"node":0,"path":"scale","extensions":{"ASOBO_animation_retargeting":{"id":"SOL"}}}},{"sampler":1,"target":{"node":5,"path":"translation","extensions":{"ASOBO_animation_retargeting":{"id":"Wheel_BACK_Ctrl"}}}},{"sampler":2,"target":{"node":5,"path":"rotation","extensions":{"ASOBO_animation_retargeting":{"id":"Wheel_BACK_Ctrl"}}}},{"sampler":3,"target":{"node":5,"path":"scale","extensions":{"ASOBO_animation_retargeting":{"id":"Wheel_BACK_Ctrl"}}}},{"sampler":4,"target":{"node":8,"path":"translation","extensions":{"ASOBO_animation_retargeting":{"id":"Wheel_LEFT_FRONT_Ctrl"}}}},{"sampler":5,"target":{"node":8,"path":"rotation","extensions":{"ASOBO_animation_retargeting":{"id":"Wheel_LEFT_FRONT_Ctrl"}}}},{"sampler":6,"target":{"node":8,"path":"scale","extensions":{"ASOBO_animation_retargeting":{"id":"Wheel_LEFT_FRONT_Ctrl"}}}},{"sampler":7,"target":{"node":10,"path":"translation","extensions":{"ASOBO_animation_retargeting":{"id":"Wheel_RIGHT_FRONT_Ctrl"}}}},{"sampler":8,"target":{"node":10,"path":"rotation","extensions":{"ASOBO_animation_retargeting":{"id":"Wheel_RIGHT_FRONT_Ctrl"}}}},{"sampler":9,"target":{"node":10,"path":"scale","extensions":{"ASOBO_animation_retargeting":{"id":"Wheel_RIGHT_FRONT_Ctrl"}}}}],"samplers":[{"input":28,"interpolation":"LINEAR","output":29},{"input":30,"interpolation":"LINEAR","output":31},{"input":32,"interpolation":"LINEAR","output":33},{"input":34,"interpolation":"LINEAR","output":35},{"input":36,"interpolation":"LINEAR","output":37},{"input":38,"interpolation":"LINEAR","output":39},{"input":40,"interpolation":"LINEAR","output":41},{"input":42,"interpolation":"LINEAR","output":43},{"input":44,"interpolation":"LINEAR","output":45},{"input":46,"interpolation":"LINEAR","output":47}],"name":"Wheel_Rotation"},{"channels":[{"sampler":0,"target":{"node":0,"path":"scale","extensions":{"ASOBO_animation_retargeting":{"id":"SOL"}}}},{"sampler":1,"target":{"node":7,"path":"translation","extensions":{"ASOBO_animation_retargeting":{"id":"Wheel_LEFT_FRONT_Ctrl001"}}}},{"sampler":2,"target":{"node":7,"path":"rotation","extensions":{"ASOBO_animation_retargeting":{"id":"Wheel_LEFT_FRONT_Ctrl001"}}}},{"sampler":3,"target":{"node":7,"path":"scale","extensions":{"ASOBO_animation_retargeting":{"id":"Wheel_LEFT_FRONT_Ctrl001"}}}},{"sampler":4,"target":{"node":9,"path":"translation","extensions":{"ASOBO_animation_retargeting":{"id":"Wheel_RIGHT_FRONT_Ctrl001"}}}},{"sampler":5,"target":{"node":9,"path":"rotation","extensions":{"ASOBO_animation_retargeting":{"id":"Wheel_RIGHT_FRONT_Ctrl001"}}}},{"sampler":6,"target":{"node":9,"path":"scale","extensions":{"ASOBO_animation_retargeting":{"id":"Wheel_RIGHT_FRONT_Ctrl001"}}}}],"samplers":[{"input":48,"interpolation":"LINEAR","output":49},{"input":50,"interpolation":"LINEAR","output":51},{"input":52,"interpolation":"LINEAR","output":53},{"input":54,"interpolation":"LINEAR","output":55},{"input":56,"interpolation":"LINEAR","output":57},{"input":58,"interpolation":"LINEAR","output":59},{"input":60,"interpolation":"LINEAR","output":61}],"name":"Wheel_Orientation"},{"channels":[{"sampler":0,"target":{"node":11,"path":"rotation","extensions":{"ASOBO_animation_retargeting":{"id":"Gyrolight_Ctrl001"}}}},{"sampler":1,"target":{"node":13,"path":"rotation","extensions":{"ASOBO_animation_retargeting":{"id":"Gyrolight_Ctrl002"}}}}],"samplers":[{"input":62,"interpolation":"LINEAR","output":63},{"input":64,"interpolation":"LINEAR","output":65}],"name":"Gyrolight"}]}