{"accessors":[{"bufferView":0,"componentType":5126,"count":2,"min":[0.0],"max":[3.33333325],"type":"SCALAR","name":"accessorAnimationInput"},{"bufferView":1,"componentType":5126,"count":2,"type":"VEC3","name":"accessorAnimationScales"},{"bufferView":0,"byteOffset":8,"componentType":5126,"count":101,"min":[0.0],"max":[3.33333325],"type":"SCALAR","name":"accessorAnimationInput"},{"bufferView":1,"byteOffset":24,"componentType":5126,"count":101,"type":"VEC3","name":"accessorAnimationPositions"},{"bufferView":0,"byteOffset":412,"componentType":5126,"count":101,"min":[0.0],"max":[3.33333325],"type":"SCALAR","name":"accessorAnimationInput"},{"bufferView":2,"componentType":5126,"count":101,"type":"VEC4","name":"accessorAnimationRotations"},{"bufferView":0,"byteOffset":816,"componentType":5126,"count":101,"min":[0.0],"max":[3.33333325],"type":"SCALAR","name":"accessorAnimationInput"},{"bufferView":1,"byteOffset":1236,"componentType":5126,"count":101,"type":"VEC3","name":"accessorAnimationScales"},{"bufferView":0,"byteOffset":1220,"componentType":5126,"count":101,"min":[0.0],"max":[3.33333325],"type":"SCALAR","name":"accessorAnimationInput"},{"bufferView":1,"byteOffset":2448,"componentType":5126,"count":101,"type":"VEC3","name":"accessorAnimationPositions"},{"bufferView":0,"byteOffset":1624,"componentType":5126,"count":101,"min":[0.0],"max":[3.33333325],"type":"SCALAR","name":"accessorAnimationInput"},{"bufferView":2,"byteOffset":1616,"componentType":5126,"count":101,"type":"VEC4","name":"accessorAnimationRotations"},{"bufferView":0,"byteOffset":2028,"componentType":5126,"count":101,"min":[0.0],"max":[3.33333325],"type":"SCALAR","name":"accessorAnimationInput"},{"bufferView":1,"byteOffset":3660,"componentType":5126,"count":101,"type":"VEC3","name":"accessorAnimationScales"},{"bufferView":0,"byteOffset":2432,"componentType":5126,"count":101,"min":[0.0],"max":[3.33333325],"type":"SCALAR","name":"accessorAnimationInput"},{"bufferView":1,"byteOffset":4872,"componentType":5126,"count":101,"type":"VEC3","name":"accessorAnimationPositions"},{"bufferView":0,"byteOffset":2836,"componentType":5126,"count":101,"min":[0.0],"max":[3.33333325],"type":"SCALAR","name":"accessorAnimationInput"},{"bufferView":2,"byteOffset":3232,"componentType":5126,"count":101,"type":"VEC4","name":"accessorAnimationRotations"},{"bufferView":0,"byteOffset":3240,"componentType":5126,"count":101,"min":[0.0],"max":[3.33333325],"type":"SCALAR","name":"accessorAnimationInput"},{"bufferView":1,"byteOffset":6084,"componentType":5126,"count":101,"type":"VEC3","name":"accessorAnimationScales"},{"bufferView":0,"byteOffset":3644,"componentType":5126,"count":2,"min":[0.0],"max":[3.33333325],"type":"SCALAR","name":"accessorAnimationInput"},{"bufferView":1,"byteOffset":7296,"componentType":5126,"count":2,"type":"VEC3","name":"accessorAnimationScales"},{"bufferView":0,"byteOffset":3652,"componentType":5126,"count":101,"min":[0.0],"max":[3.33333325],"type":"SCALAR","name":"accessorAnimationInput"},{"bufferView":1,"byteOffset":7320,"componentType":5126,"count":101,"type":"VEC3","name":"accessorAnimationPositions"},{"bufferView":0,"byteOffset":4056,"componentType":5126,"count":101,"min":[0.0],"max":[3.33333325],"type":"SCALAR","name":"accessorAnimationInput"},{"bufferView":2,"byteOffset":4848,"componentType":5126,"count":101,"type":"VEC4","name":"accessorAnimationRotations"},{"bufferView":0,"byteOffset":4460,"componentType":5126,"count":101,"min":[0.0],"max":[3.33333325],"type":"SCALAR","name":"accessorAnimationInput"},{"bufferView":1,"byteOffset":8532,"componentType":5126,"count":101,"type":"VEC3","name":"accessorAnimationScales"},{"bufferView":0,"byteOffset":4864,"componentType":5126,"count":2,"min":[0.0],"max":[1.6],"type":"SCALAR","name":"accessorAnimationInput"},{"bufferView":1,"byteOffset":9744,"componentType":5126,"count":2,"type":"VEC3","name":"accessorAnimationScales"},{"bufferView":0,"byteOffset":4872,"componentType":5126,"count":49,"min":[0.0],"max":[1.6],"type":"SCALAR","name":"accessorAnimationInput"},{"bufferView":1,"byteOffset":9768,"componentType":5126,"count":49,"type":"VEC3","name":"accessorAnimationPositions"},{"bufferView":0,"byteOffset":5068,"componentType":5126,"count":49,"min":[0.0],"max":[1.6],"type":"SCALAR","name":"accessorAnimationInput"},{"bufferView":2,"byteOffset":6464,"componentType":5126,"count":49,"type":"VEC4","name":"accessorAnimationRotations"},{"bufferView":0,"byteOffset":5264,"componentType":5126,"count":49,"min":[0.0],"max":[1.6],"type":"SCALAR","name":"accessorAnimationInput"},{"bufferView":1,"byteOffset":10356,"componentType":5126,"count":49,"type":"VEC3","name":"accessorAnimationScales"},{"bufferView":0,"byteOffset":5460,"componentType":5126,"count":49,"min":[0.0],"max":[1.6],"type":"SCALAR","name":"accessorAnimationInput"},{"bufferView":1,"byteOffset":10944,"componentType":5126,"count":49,"type":"VEC3","name":"accessorAnimationPositions"},{"bufferView":0,"byteOffset":5656,"componentType":5126,"count":49,"min":[0.0],"max":[1.6],"type":"SCALAR","name":"accessorAnimationInput"},{"bufferView":2,"byteOffset":7248,"componentType":5126,"count":49,"type":"VEC4","name":"accessorAnimationRotations"},{"bufferView":0,"byteOffset":5852,"componentType":5126,"count":49,"min":[0.0],"max":[1.6],"type":"SCALAR","name":"accessorAnimationInput"},{"bufferView":1,"byteOffset":11532,"componentType":5126,"count":49,"type":"VEC3","name":"accessorAnimationScales"},{"bufferView":0,"byteOffset":6048,"componentType":5126,"count":49,"min":[0.0],"max":[1.6],"type":"SCALAR","name":"accessorAnimationInput"},{"bufferView":1,"byteOffset":12120,"componentType":5126,"count":49,"type":"VEC3","name":"accessorAnimationPositions"},{"bufferView":0,"byteOffset":6244,"componentType":5126,"count":49,"min":[0.0],"max":[1.6],"type":"SCALAR","name":"accessorAnimationInput"},{"bufferView":2,"byteOffset":8032,"componentType":5126,"count":49,"type":"VEC4","name":"accessorAnimationRotations"},{"bufferView":0,"byteOffset":6440,"componentType":5126,"count":49,"min":[0.0],"max":[1.6],"type":"SCALAR","name":"accessorAnimationInput"},{"bufferView":1,"byteOffset":12708,"componentType":5126,"count":49,"type":"VEC3","name":"accessorAnimationScales"},{"bufferView":0,"byteOffset":6636,"componentType":5126,"count":2,"min":[0.0],"max":[1.66666663],"type":"SCALAR","name":"accessorAnimationInput"},{"bufferView":1,"byteOffset":13296,"componentType":5126,"count":2,"type":"VEC3","name":"accessorAnimationScales"},{"bufferView":0,"byteOffset":6644,"componentType":5126,"count":51,"min":[0.0],"max":[1.66666663],"type":"SCALAR","name":"accessorAnimationInput"},{"bufferView":1,"byteOffset":13320,"componentType":5126,"count":51,"type":"VEC3","name":"accessorAnimationPositions"},{"bufferView":0,"byteOffset":6848,"componentType":5126,"count":51,"min":[0.0],"max":[1.66666663],"type":"SCALAR","name":"accessorAnimationInput"},{"bufferView":2,"byteOffset":8816,"componentType":5126,"count":51,"type":"VEC4","name":"accessorAnimationRotations"},{"bufferView":0,"byteOffset":7052,"componentType":5126,"count":51,"min":[0.0],"max":[1.66666663],"type":"SCALAR","name":"accessorAnimationInput"},{"bufferView":1,"byteOffset":13932,"componentType":5126,"count":51,"type":"VEC3","name":"accessorAnimationScales"},{"bufferView":0,"byteOffset":7256,"componentType":5126,"count":51,"min":[0.0],"max":[1.66666663],"type":"SCALAR","name":"accessorAnimationInput"},{"bufferView":1,"byteOffset":14544,"componentType":5126,"count":51,"type":"VEC3","name":"accessorAnimationPositions"},{"bufferView":0,"byteOffset":7460,"componentType":5126,"count":51,"min":[0.0],"max":[1.66666663],"type":"SCALAR","name":"accessorAnimationInput"},{"bufferView":2,"byteOffset":9632,"componentType":5126,"count":51,"type":"VEC4","name":"accessorAnimationRotations"},{"bufferView":0,"byteOffset":7664,"componentType":5126,"count":51,"min":[0.0],"max":[1.66666663],"type":"SCALAR","name":"accessorAnimationInput"},{"bufferView":1,"byteOffset":15156,"componentType":5126,"count":51,"type":"VEC3","name":"accessorAnimationScales"},{"bufferView":0,"byteOffset":7868,"componentType":5126,"count":50,"min":[0.0],"max":[1.63333333],"type":"SCALAR","name":"accessorAnimationInput"},{"bufferView":2,"byteOffset":10448,"componentType":5126,"count":50,"type":"VEC4","name":"accessorAnimationRotations"},{"bufferView":0,"byteOffset":8068,"componentType":5126,"count":50,"min":[0.0],"max":[1.63333333],"type":"SCALAR","name":"accessorAnimationInput"},{"bufferView":2,"byteOffset":11248,"componentType":5126,"count":50,"type":"VEC4","name":"accessorAnimationRotations"}],"animations":[{"name":"Elevation","channels":[{"sampler":0,"target":{"node":0,"path":"scale","extensions":{"ASOBO_animation_retargeting":{"id":"SOL"}}}},{"sampler":1,"target":{"node":15,"path":"translation","extensions":{"ASOBO_animation_retargeting":{"id":"Pistons_1_CTRL"}}}},{"sampler":2,"target":{"node":15,"path":"rotation","extensions":{"ASOBO_animation_retargeting":{"id":"Pistons_1_CTRL"}}}},{"sampler":3,"target":{"node":15,"path":"scale","extensions":{"ASOBO_animation_retargeting":{"id":"Pistons_1_CTRL"}}}},{"sampler":4,"target":{"node":4,"path":"translation","extensions":{"ASOBO_animation_retargeting":{"id":"Pistons_2_CTRL"}}}},{"sampler":5,"target":{"node":4,"path":"rotation","extensions":{"ASOBO_animation_retargeting":{"id":"Pistons_2_CTRL"}}}},{"sampler":6,"target":{"node":4,"path":"scale","extensions":{"ASOBO_animation_retargeting":{"id":"Pistons_2_CTRL"}}}},{"sampler":7,"target":{"node":1,"path":"translation","extensions":{"ASOBO_animation_retargeting":{"id":"Rotation_CTRL"}}}},{"sampler":8,"target":{"node":1,"path":"rotation","extensions":{"ASOBO_animation_retargeting":{"id":"Rotation_CTRL"}}}},{"sampler":9,"target":{"node":1,"path":"scale","extensions":{"ASOBO_animation_retargeting":{"id":"Rotation_CTRL"}}}}],"samplers":[{"input":0,"output":1,"interpolation":"LINEAR"},{"input":2,"output":3,"interpolation":"LINEAR"},{"input":4,"output":5,"interpolation":"LINEAR"},{"input":6,"output":7,"interpolation":"LINEAR"},{"input":8,"output":9,"interpolation":"LINEAR"},{"input":10,"output":11,"interpolation":"LINEAR"},{"input":12,"output":13,"interpolation":"LINEAR"},{"input":14,"output":15,"interpolation":"LINEAR"},{"input":16,"output":17,"interpolation":"LINEAR"},{"input":18,"output":19,"interpolation":"LINEAR"}]},{"name":"Deployment","channels":[{"sampler":0,"target":{"node":0,"path":"scale","extensions":{"ASOBO_animation_retargeting":{"id":"SOL"}}}},{"sampler":1,"target":{"node":2,"path":"translation","extensions":{"ASOBO_animation_retargeting":{"id":"Deployment_CTRL"}}}},{"sampler":2,"target":{"node":2,"path":"rotation","extensions":{"ASOBO_animation_retargeting":{"id":"Deployment_CTRL"}}}},{"sampler":3,"target":{"node":2,"path":"scale","extensions":{"ASOBO_animation_retargeting":{"id":"Deployment_CTRL"}}}}],"samplers":[{"input":20,"output":21,"interpolation":"LINEAR"},{"input":22,"output":23,"interpolation":"LINEAR"},{"input":24,"output":25,"interpolation":"LINEAR"},{"input":26,"output":27,"interpolation":"LINEAR"}]},{"name":"Wheel_Rotation","channels":[{"sampler":0,"target":{"node":0,"path":"scale","extensions":{"ASOBO_animation_retargeting":{"id":"SOL"}}}},{"sampler":1,"target":{"node":5,"path":"translation","extensions":{"ASOBO_animation_retargeting":{"id":"Wheel_BACK_Ctrl"}}}},{"sampler":2,"target":{"node":5,"path":"rotation","extensions":{"ASOBO_animation_retargeting":{"id":"Wheel_BACK_Ctrl"}}}},{"sampler":3,"target":{"node":5,"path":"scale","extensions":{"ASOBO_animation_retargeting":{"id":"Wheel_BACK_Ctrl"}}}},{"sampler":4,"target":{"node":8,"path":"translation","extensions":{"ASOBO_animation_retargeting":{"id":"Wheel_LEFT_FRONT_Ctrl"}}}},{"sampler":5,"target":{"node":8,"path":"rotation","extensions":{"ASOBO_animation_retargeting":{"id":"Wheel_LEFT_FRONT_Ctrl"}}}},{"sampler":6,"target":{"node":8,"path":"scale","extensions":{"ASOBO_animation_retargeting":{"id":"Wheel_LEFT_FRONT_Ctrl"}}}},{"sampler":7,"target":{"node":10,"path":"translation","extensions":{"ASOBO_animation_retargeting":{"id":"Wheel_RIGHT_FRONT_Ctrl"}}}},{"sampler":8,"target":{"node":10,"path":"rotation","extensions":{"ASOBO_animation_retargeting":{"id":"Wheel_RIGHT_FRONT_Ctrl"}}}},{"sampler":9,"target":{"node":10,"path":"scale","extensions":{"ASOBO_animation_retargeting":{"id":"Wheel_RIGHT_FRONT_Ctrl"}}}}],"samplers":[{"input":28,"output":29,"interpolation":"LINEAR"},{"input":30,"output":31,"interpolation":"LINEAR"},{"input":32,"output":33,"interpolation":"LINEAR"},{"input":34,"output":35,"interpolation":"LINEAR"},{"input":36,"output":37,"interpolation":"LINEAR"},{"input":38,"output":39,"interpolation":"LINEAR"},{"input":40,"output":41,"interpolation":"LINEAR"},{"input":42,"output":43,"interpolation":"LINEAR"},{"input":44,"output":45,"interpolation":"LINEAR"},{"input":46,"output":47,"interpolation":"LINEAR"}]},{"name":"Wheel_Orientation","channels":[{"sampler":0,"target":{"node":0,"path":"scale","extensions":{"ASOBO_animation_retargeting":{"id":"SOL"}}}},{"sampler":1,"target":{"node":7,"path":"translation","extensions":{"ASOBO_animation_retargeting":{"id":"Wheel_LEFT_FRONT_Ctrl001"}}}},{"sampler":2,"target":{"node":7,"path":"rotation","extensions":{"ASOBO_animation_retargeting":{"id":"Wheel_LEFT_FRONT_Ctrl001"}}}},{"sampler":3,"target":{"node":7,"path":"scale","extensions":{"ASOBO_animation_retargeting":{"id":"Wheel_LEFT_FRONT_Ctrl001"}}}},{"sampler":4,"target":{"node":9,"path":"translation","extensions":{"ASOBO_animation_retargeting":{"id":"Wheel_RIGHT_FRONT_Ctrl001"}}}},{"sampler":5,"target":{"node":9,"path":"rotation","extensions":{"ASOBO_animation_retargeting":{"id":"Wheel_RIGHT_FRONT_Ctrl001"}}}},{"sampler":6,"target":{"node":9,"path":"scale","extensions":{"ASOBO_animation_retargeting":{"id":"Wheel_RIGHT_FRONT_Ctrl001"}}}}],"samplers":[{"input":48,"output":49,"interpolation":"LINEAR"},{"input":50,"output":51,"interpolation":"LINEAR"},{"input":52,"output":53,"interpolation":"LINEAR"},{"input":54,"output":55,"interpolation":"LINEAR"},{"input":56,"output":57,"interpolation":"LINEAR"},{"input":58,"output":59,"interpolation":"LINEAR"},{"input":60,"output":61,"interpolation":"LINEAR"}]},{"name":"Gyrolight","channels":[{"sampler":0,"target":{"node":11,"path":"rotation","extensions":{"ASOBO_animation_retargeting":{"id":"Gyrolight_Ctrl001"}}}},{"sampler":1,"target":{"node":13,"path":"rotation","extensions":{"ASOBO_animation_retargeting":{"id":"Gyrolight_Ctrl002"}}}}],"samplers":[{"input":62,"output":63,"interpolation":"LINEAR"},{"input":64,"output":65,"interpolation":"LINEAR"}]}],"asset":{"generator":"babylon.js glTF exporter for 3dsmax 2019 v1.5.0","version":"2.0","extensions":{"ASOBO_asset_optimized":{"MajorVersion":4,"MinorVersion":4},"ASOBO_normal_map_convention":{"tangent_space_convention":"DirectX"}}},"bufferViews":[{"buffer":0,"byteLength":8268,"name":"bufferViewAnimationFloatScalar"},{"buffer":0,"byteLength":15768,"byteOffset":8268,"name":"bufferViewAnimationFloatVec3"},{"buffer":0,"byteLength":12048,"byteOffset":24036,"name":"bufferViewAnimationFloatVec4"}],"nodes":[{"translation":[0.0,0.0,0.0],"rotation":[0.0,0.0,0.0,1.0],"scale":[1.0,1.0,1.0],"extensions":{"ASOBO_animation_retargeting":{"id":"SOL"}},"name":"SOL","children":[1,4,5,6,7,9,11,13,15,16,17,18,19]},{"translation":[0.0,1.35827959,-2.71682644],"rotation":[0.0703595653,0.0,0.0,0.9975217],"scale":[1.0,1.0,1.0],"extensions":{"ASOBO_animation_retargeting":{"id":"Rotation_CTRL"}},"name":"Rotation_CTRL","children":[2]},{"translation":[0.0,0.372752547,-0.03481269],"rotation":[0.445339,0.0,0.0,0.895362],"scale":[1.0,0.999999762,0.999999762],"extensions":{"ASOBO_animation_retargeting":{"id":"Deployment_CTRL"}},"name":"Deployment_CTRL","children":[3]},{"translation":[0.0,6.260292,2.65373564],"rotation":[-0.445339054,0.0,0.0,0.895362],"scale":[1.0,1.00000024,1.00000024],"extensions":{"ASOBO_animation_retargeting":{"id":"TARGET_DOOR"}},"name":"TARGET_DOOR"},{"translation":[0.0,1.935182,1.0919714],"rotation":[-0.126718327,0.0,0.0,0.99193877],"scale":[1.0,1.0,1.0],"extensions":{"ASOBO_animation_retargeting":{"id":"Pistons_2_CTRL"}},"name":"Pistons_2_CTRL"},{"translation":[0.0,0.402,-1.379],"rotation":[-0.0000114440918,0.0,0.0,1.0],"scale":[1.0,1.0,1.0],"extensions":{"ASOBO_animation_retargeting":{"id":"Wheel_BACK_Ctrl"}},"name":"Wheel_BACK_Ctrl"},{"translation":[-0.317009032,0.288653731,2.45944452],"rotation":[0.0,0.0,0.0,1.0],"scale":[1.0,1.0,1.0],"extensions":{"ASOBO_animation_retargeting":{"id":"PILOT_0"}},"name":"PILOT_0"},{"translation":[1.211,0.402,1.63999987],"rotation":[-0.0000114440918,4.065758e-20,-3.55271368e-15,1.0],"scale":[1.0,1.0,1.0],"extensions":{"ASOBO_animation_retargeting":{"id":"Wheel_LEFT_FRONT_Ctrl001"}},"name":"Wheel_LEFT_FRONT_Ctrl001","children":[8]},{"translation":[0.0,0.0,1.1920929e-7],"rotation":[-0.0000114440918,0.0,0.0,1.0],"scale":[1.0,1.0,1.0],"extensions":{"ASOBO_animation_retargeting":{"id":"Wheel_LEFT_FRONT_Ctrl"}},"name":"Wheel_LEFT_FRONT_Ctrl"},{"translation":[-1.211,0.402,1.63999987],"rotation":[0.0,0.0,-1.42108547e-14,1.0],"scale":[1.0,1.0,1.0],"extensions":{"ASOBO_animation_retargeting":{"id":"Wheel_RIGHT_FRONT_Ctrl001"}},"name":"Wheel_RIGHT_FRONT_Ctrl001","children":[10]},{"translation":[0.0,0.0,0.0],"rotation":[-2.38418579e-7,0.0,0.0,1.0],"scale":[1.0,1.0,1.0],"extensions":{"ASOBO_animation_retargeting":{"id":"Wheel_RIGHT_FRONT_Ctrl"}},"name":"Wheel_RIGHT_FRONT_Ctrl"},{"translation":[-0.782557845,1.93066835,2.04514623],"rotation":[0.0,0.0,0.0,1.0],"scale":[1.0,1.0,1.0],"extensions":{"ASOBO_animation_retargeting":{"id":"Gyrolight_Ctrl001"}},"name":"Gyrolight_Ctrl001","children":[12]},{"translation":[0.0,2.38418579e-7,0.0],"rotation":[-0.6830128,-0.183012664,-0.1830127,0.6830127],"scale":[1.0,1.0,1.0],"extensions":{"ASOBO_animation_retargeting":{"id":"Gyrolight_O1"},"ASOBO_macro_light":{"color":[1.0,0.5884637,0.000001],"cone_angle":120.0,"day_night_cycle":false,"flash_frequency":0.0,"has_simmetry":false,"intensity":50.0}},"name":"Gyrolight_O1"},{"translation":[0.786193,1.93066835,2.04514623],"rotation":[0.0,0.0,0.0,1.0],"scale":[1.0,1.0,1.0],"extensions":{"ASOBO_animation_retargeting":{"id":"Gyrolight_Ctrl002"}},"name":"Gyrolight_Ctrl002","children":[14]},{"translation":[0.0,0.0,0.0],"rotation":[-0.6830128,0.183012709,0.183012709,0.6830126],"scale":[1.0,1.0,1.0],"extensions":{"ASOBO_animation_retargeting":{"id":"Gyrolight_O2"},"ASOBO_macro_light":{"color":[1.0,0.5884637,0.000001],"cone_angle":120.0,"day_night_cycle":false,"flash_frequency":0.0,"has_simmetry":false,"intensity":50.0}},"name":"Gyrolight_O2"},{"translation":[0.0,1.913487,1.09760618],"rotation":[-0.126718327,0.0,0.0,0.99193877],"scale":[1.0,1.00000024,1.00000024],"extensions":{"ASOBO_animation_retargeting":{"id":"Pistons_1_CTRL"}},"name":"Pistons_1_CTRL"},{"translation":[-0.7641349,0.374503374,3.79103136],"rotation":[-0.7071068,0.0,0.0,0.7071067],"scale":[1.0,1.0,1.0],"extensions":{"ASOBO_animation_retargeting":{"id":"Headlight_R"},"ASOBO_macro_light":{"color":[1.0,0.976548731,0.735647857],"cone_angle":120.0,"day_night_cycle":false,"flash_frequency":0.0,"has_simmetry":false,"intensity":50.0}},"name":"Headlight_R"},{"translation":[0.75177,0.374503374,3.79103136],"rotation":[-0.7071068,0.0,0.0,0.7071067],"scale":[1.0,1.0,1.0],"extensions":{"ASOBO_animation_retargeting":{"id":"Headlight_L"},"ASOBO_macro_light":{"color":[1.0,0.976548731,0.735647857],"cone_angle":120.0,"day_night_cycle":false,"flash_frequency":0.0,"has_simmetry":false,"intensity":50.0}},"name":"Headlight_L"},{"translation":[-1.11672032,0.342846155,-4.41372252],"rotation":[0.70710665,0.0,0.0,0.7071069],"scale":[1.0,1.0,1.0],"extensions":{"ASOBO_animation_retargeting":{"id":"Backlight_R"},"ASOBO_macro_light":{"color":[1.0,0.0472351052,0.000001],"cone_angle":90.0,"day_night_cycle":false,"flash_frequency":0.0,"has_simmetry":false,"intensity":30.0}},"name":"Backlight_R"},{"translation":[1.10858476,0.3450115,-4.413722],"rotation":[0.70710665,0.0,0.0,0.7071069],"scale":[1.0,1.0,1.0],"extensions":{"ASOBO_animation_retargeting":{"id":"Backlight_L"},"ASOBO_macro_light":{"color":[1.0,0.0472351052,0.000001],"cone_angle":90.0,"day_night_cycle":false,"flash_frequency":0.0,"has_simmetry":false,"intensity":30.0}},"name":"Backlight_L"}],"scene":0,"scenes":[{"nodes":[0]}],"extensionsUsed":["ASOBO_normal_map_convention","ASOBO_animation_retargeting","ASOBO_macro_light","ASOBO_asset_optimized"],"buffers":[{"byteLength":36084,"uri":"Boarding_Stairs.bin"}]}
