{"asset":{"version":"2.0","generator":"babylon.js glTF exporter for 3dsmax 2019 v1.5.0","extensions":{"ASOBO_normal_map_convention":{"tangent_space_convention":"DirectX"}}},"extensionsUsed":["ASOBO_normal_map_convention","ASOBO_animation_retargeting","ASOBO_macro_light"],"scene":0,"scenes":[{"nodes":[0],"extensions":{}}],"nodes":[{"children":[1,6,8,10,14,15,18,21,23,25,27,28,29,30,31],"translation":[0.0,0.0,0.0],"rotation":[0.0,0.0,0.0,1.0],"scale":[1.0,1.0,1.0],"name":"SOL","extensions":{"ASOBO_animation_retargeting":{"id":"SOL"}}},{"children":[2,5],"translation":[0.0,1.35827959,-2.71682644],"rotation":[0.0703595653,0.0,0.0,0.9975217],"scale":[1.0,1.0,1.0],"name":"Rotation_CTRL","extensions":{"ASOBO_animation_retargeting":{"id":"Rotation_CTRL"}}},{"children":[3,4],"translation":[0.0,0.372752547,-0.03481269],"rotation":[0.445339,0.0,0.0,0.895362],"scale":[1.0,0.999999762,0.999999762],"name":"Deployment_CTRL","extensions":{"ASOBO_animation_retargeting":{"id":"Deployment_CTRL"}}},{"translation":[0.0,6.260292,2.65373564],"rotation":[-0.445339054,0.0,0.0,0.895362],"scale":[1.0,1.00000024,1.00000024],"name":"TARGET_DOOR","extensions":{"ASOBO_animation_retargeting":{"id":"TARGET_DOOR"}}},{"mesh":0,"translation":[0.0,-0.260926723,-0.0047545433],"rotation":[0.0,0.0,0.0,1.0],"scale":[1.0,1.00000024,1.00000024],"name":"Ramp_End","extensions":{"ASOBO_animation_retargeting":{"id":"x0_Ramp_End"}}},{"mesh":1,"translation":[0.0,1.1920929E-07,0.0],"rotation":[0.0,0.0,0.0,1.0],"scale":[1.0,1.0,1.0],"name":"Ramp_Start","extensions":{"ASOBO_animation_retargeting":{"id":"x0_Ramp_Start"}}},{"children":[7],"translation":[0.0,1.935182,1.0919714],"rotation":[-0.126718327,0.0,0.0,0.99193877],"scale":[1.0,1.0,1.0],"name":"Pistons_2_CTRL","extensions":{"ASOBO_animation_retargeting":{"id":"Pistons_2_CTRL"}}},{"mesh":2,"translation":[0.0,-2.38418579E-07,0.0],"rotation":[1.49011576E-08,0.0,0.0,1.0],"scale":[1.0,1.00000024,1.00000024],"name":"Piston2","extensions":{"ASOBO_animation_retargeting":{"id":"x0_Piston2"}}},{"children":[9],"translation":[0.0,0.402,-1.379],"rotation":[-1.14440918E-05,0.0,0.0,1.0],"scale":[1.0,1.0,1.0],"name":"Wheel_BACK_Ctrl","extensions":{"ASOBO_animation_retargeting":{"id":"Wheel_BACK_Ctrl"}}},{"mesh":3,"translation":[0.0,2.98023224E-08,-1.1920929E-07],"rotation":[0.0,0.0,0.0,1.0],"scale":[1.0,1.0,1.0],"name":"W2","extensions":{"ASOBO_animation_retargeting":{"id":"x0_W2"}}},{"children":[11,12,13],"mesh":4,"translation":[0.0,0.01494233,0.0],"rotation":[0.0,0.0,0.0,1.0],"scale":[1.0,1.0,1.0],"name":"ASO_Boarding_Stairs","extensions":{"ASOBO_animation_retargeting":{"id":"x0_ASO_Boarding_Stairs"}}},{"mesh":5,"translation":[0.0,0.0,0.0],"rotation":[0.0,0.0,0.0,1.0],"scale":[1.0,1.0,1.0],"name":"Headlight_Mesh","extensions":{"ASOBO_animation_retargeting":{"id":"Headlight_Mesh"}}},{"mesh":6,"translation":[0.0,0.0,0.0],"rotation":[0.0,0.0,0.0,1.0],"scale":[1.0,1.0,1.0],"name":"Backlight_Mesh","extensions":{"ASOBO_animation_retargeting":{"id":"Backlight_Mesh"}}},{"mesh":7,"translation":[0.0,0.0,0.0],"rotation":[0.0,0.0,0.0,1.0],"scale":[1.0,1.0,1.0],"name":"Gyro_Mesh","extensions":{"ASOBO_animation_retargeting":{"id":"Gyro_Mesh"}}},{"translation":[-0.317009032,0.288653731,2.45944452],"rotation":[0.0,0.0,0.0,1.0],"scale":[1.0,1.0,1.0],"name":"PILOT_0","extensions":{"ASOBO_animation_retargeting":{"id":"PILOT_0"}}},{"children":[16],"translation":[1.211,0.402,1.63999987],"rotation":[-1.14440918E-05,4.065758E-20,-3.55271368E-15,1.0],"scale":[1.0,1.0,1.0],"name":"Wheel_LEFT_FRONT_Ctrl001","extensions":{"ASOBO_animation_retargeting":{"id":"Wheel_LEFT_FRONT_Ctrl001"}}},{"children":[17],"translation":[0.0,0.0,1.1920929E-07],"rotation":[-1.14440918E-05,0.0,0.0,1.0],"scale":[1.0,1.0,1.0],"name":"Wheel_LEFT_FRONT_Ctrl","extensions":{"ASOBO_animation_retargeting":{"id":"Wheel_LEFT_FRONT_Ctrl"}}},{"mesh":8,"translation":[-0.0299017429,-0.000423103571,-0.000172615051],"rotation":[2.28881836E-05,0.0,0.0,1.0],"scale":[1.0,1.0,1.0],"name":"W1_L","extensions":{"ASOBO_animation_retargeting":{"id":"x0_W1_L"}}},{"children":[19],"translation":[-1.211,0.402,1.63999987],"rotation":[0.0,0.0,-1.42108547E-14,1.0],"scale":[1.0,1.0,1.0],"name":"Wheel_RIGHT_FRONT_Ctrl001","extensions":{"ASOBO_animation_retargeting":{"id":"Wheel_RIGHT_FRONT_Ctrl001"}}},{"children":[20],"translation":[0.0,0.0,0.0],"rotation":[-2.38418579E-07,0.0,0.0,1.0],"scale":[1.0,1.0,1.0],"name":"Wheel_RIGHT_FRONT_Ctrl","extensions":{"ASOBO_animation_retargeting":{"id":"Wheel_RIGHT_FRONT_Ctrl"}}},{"mesh":9,"translation":[0.0299015045,-0.000423073769,-0.00017285347],"rotation":[2.38418579E-07,0.0,0.0,1.0],"scale":[1.0,1.0,1.0],"name":"W1_R","extensions":{"ASOBO_animation_retargeting":{"id":"x0_W1_R"}}},{"children":[22],"translation":[-0.782557845,1.93066835,2.04514623],"rotation":[0.0,0.0,0.0,1.0],"scale":[1.0,1.0,1.0],"name":"Gyrolight_Ctrl001","extensions":{"ASOBO_animation_retargeting":{"id":"Gyrolight_Ctrl001"}}},{"translation":[0.0,2.38418579E-07,0.0],"rotation":[-5.96046448E-08,-0.258819,-2.98023224E-08,0.9659259],"scale":[1.0,1.0,1.0],"name":"Gyrolight_O1","extensions":{"ASOBO_macro_light":{"color":[1.0,0.5884637,1E-06],"intensity":2.0,"cone_angle":120.0,"has_simmetry":false,"flash_frequency":0.0,"flash_duration":0.0,"flash_phase":0.0,"rotation_speed":0.0,"day_night_cycle":false},"ASOBO_animation_retargeting":{"id":"Gyrolight_O1"}}},{"children":[24],"translation":[0.786193,1.93066835,2.04514623],"rotation":[0.0,0.0,0.0,1.0],"scale":[1.0,1.0,1.0],"name":"Gyrolight_Ctrl002","extensions":{"ASOBO_animation_retargeting":{"id":"Gyrolight_Ctrl002"}}},{"translation":[0.0,0.0,0.0],"rotation":[-1.1920929E-07,0.258819044,0.0,0.9659258],"scale":[1.0,1.0,1.0],"name":"Gyrolight_O2","extensions":{"ASOBO_macro_light":{"color":[1.0,0.5884637,1E-06],"intensity":2.0,"cone_angle":120.0,"has_simmetry":false,"flash_frequency":0.0,"flash_duration":0.0,"flash_phase":0.0,"rotation_speed":0.0,"day_night_cycle":false},"ASOBO_animation_retargeting":{"id":"Gyrolight_O2"}}},{"children":[26],"translation":[0.0,1.913487,1.09760618],"rotation":[-0.126718327,0.0,0.0,0.99193877],"scale":[1.0,1.00000024,1.00000024],"name":"Pistons_1_CTRL","extensions":{"ASOBO_animation_retargeting":{"id":"Pistons_1_CTRL"}}},{"mesh":10,"translation":[0.0,0.0,-1.1920929E-07],"rotation":[1.4901163E-08,0.0,0.0,1.0],"scale":[1.0,0.9999999,0.9999999],"name":"Piston1","extensions":{"ASOBO_animation_retargeting":{"id":"x0_Piston1"}}},{"skin":0,"mesh":11,"translation":[0.0,0.01494233,0.0],"rotation":[0.0,0.0,0.0,1.0],"scale":[1.0,1.0,1.0],"name":"Skinned","extensions":{"ASOBO_animation_retargeting":{"id":"x0_Skinned"}}},{"translation":[-0.7641349,0.374503374,3.79103136],"rotation":[-5.96046448E-08,0.0,0.0,0.99999994],"scale":[1.0,1.0,1.0],"name":"Headlight_R","extensions":{"ASOBO_macro_light":{"color":[1.0,0.976548731,0.735647857],"intensity":5.0,"cone_angle":120.0,"has_simmetry":false,"flash_frequency":0.0,"flash_duration":0.0,"flash_phase":0.0,"rotation_speed":0.0,"day_night_cycle":false},"ASOBO_animation_retargeting":{"id":"Headlight_R"}}},{"translation":[0.75177,0.374503374,3.79103136],"rotation":[-5.96046448E-08,0.0,0.0,0.99999994],"scale":[1.0,1.0,1.0],"name":"Headlight_L","extensions":{"ASOBO_macro_light":{"color":[1.0,0.976548731,0.735647857],"intensity":5.0,"cone_angle":120.0,"has_simmetry":false,"flash_frequency":0.0,"flash_duration":0.0,"flash_phase":0.0,"rotation_speed":0.0,"day_night_cycle":false},"ASOBO_animation_retargeting":{"id":"Headlight_L"}}},{"translation":[-1.11672032,0.342846155,-4.41372252],"rotation":[1.0,0.0,0.0,1.49011612E-07],"scale":[1.0,1.0,1.0],"name":"Backlight_R","extensions":{"ASOBO_macro_light":{"color":[1.0,0.0472351052,1E-06],"intensity":1.0,"cone_angle":90.0,"has_simmetry":false,"flash_frequency":0.0,"flash_duration":0.0,"flash_phase":0.0,"rotation_speed":0.0,"day_night_cycle":false},"ASOBO_animation_retargeting":{"id":"Backlight_R"}}},{"translation":[1.10858476,0.3450115,-4.413722],"rotation":[1.0,0.0,0.0,1.49011612E-07],"scale":[1.0,1.0,1.0],"name":"Backlight_L","extensions":{"ASOBO_macro_light":{"color":[1.0,0.0472351052,1E-06],"intensity":1.0,"cone_angle":90.0,"has_simmetry":false,"flash_frequency":0.0,"flash_duration":0.0,"flash_phase":0.0,"rotation_speed":0.0,"day_night_cycle":false},"ASOBO_animation_retargeting":{"id":"Backlight_L"}}}],"meshes":[{"primitives":[{"attributes":{"POSITION":1,"NORMAL":2,"TEXCOORD_0":3},"indices":0,"mode":4,"material":0},{"attributes":{"POSITION":5,"NORMAL":6,"TEXCOORD_0":7},"indices":4,"mode":4,"material":1},{"attributes":{"POSITION":9,"NORMAL":10,"TEXCOORD_0":11},"indices":8,"mode":4,"material":2}],"name":"x0_Ramp_End"},{"primitives":[{"attributes":{"POSITION":13,"NORMAL":14,"TEXCOORD_0":15},"indices":12,"mode":4,"material":0},{"attributes":{"POSITION":17,"NORMAL":18,"TEXCOORD_0":19},"indices":16,"mode":4,"material":1}],"name":"x0_Ramp_Start"},{"primitives":[{"attributes":{"POSITION":21,"NORMAL":22,"TEXCOORD_0":23},"indices":20,"mode":4,"material":0}],"name":"x0_Piston2"},{"primitives":[{"attributes":{"POSITION":25,"NORMAL":26,"TEXCOORD_0":27},"indices":24,"mode":4,"material":2}],"name":"x0_W2"},{"primitives":[{"attributes":{"POSITION":29,"NORMAL":30,"TEXCOORD_0":31},"indices":28,"mode":4,"material":0},{"attributes":{"POSITION":33,"NORMAL":34,"TEXCOORD_0":35},"indices":32,"mode":4,"material":2},{"attributes":{"POSITION":37,"NORMAL":38,"TEXCOORD_0":39},"indices":36,"mode":4,"material":3}],"name":"x0_ASO_Boarding_Stairs"},{"primitives":[{"attributes":{"POSITION":41,"NORMAL":42,"TEXCOORD_0":43},"indices":40,"mode":4,"material":4}],"name":"Headlight_Mesh"},{"primitives":[{"attributes":{"POSITION":45,"NORMAL":46,"TEXCOORD_0":47},"indices":44,"mode":4,"material":5}],"name":"Backlight_Mesh"},{"primitives":[{"attributes":{"POSITION":49,"NORMAL":50,"TEXCOORD_0":51},"indices":48,"mode":4,"material":6}],"name":"Gyro_Mesh"},{"primitives":[{"attributes":{"POSITION":53,"NORMAL":54,"TEXCOORD_0":55},"indices":52,"mode":4,"material":2}],"name":"x0_W1_L"},{"primitives":[{"attributes":{"POSITION":57,"NORMAL":58,"TEXCOORD_0":59},"indices":56,"mode":4,"material":2}],"name":"x0_W1_R"},{"primitives":[{"attributes":{"POSITION":61,"NORMAL":62,"TEXCOORD_0":63},"indices":60,"mode":4,"material":0}],"name":"x0_Piston1"},{"primitives":[{"attributes":{"POSITION":65,"NORMAL":66,"TEXCOORD_0":67,"JOINTS_0":68,"WEIGHTS_0":69},"indices":64,"mode":4,"material":0}],"name":"x0_Skinned"}],"accessors":[{"bufferView":0,"componentType":5123,"count":996,"type":"SCALAR","name":"accessorIndices"},{"bufferView":1,"componentType":5126,"count":996,"max":[0.94203335,3.94593883,1.27621913],"min":[-0.944425,-0.575264931,0.5976536],"type":"VEC3","name":"accessorPositions"},{"bufferView":1,"byteOffset":11952,"componentType":5126,"count":996,"type":"VEC3","name":"accessorNormals"},{"bufferView":2,"componentType":5126,"count":996,"type":"VEC2","name":"accessorUVs"},{"bufferView":0,"byteOffset":1992,"componentType":5123,"count":1830,"type":"SCALAR","name":"accessorIndices"},{"bufferView":1,"byteOffset":23904,"componentType":5126,"count":1830,"max":[1.06313324,5.004857,1.367832],"min":[-1.06552374,-1.38731766,-0.0122334957],"type":"VEC3","name":"accessorPositions"},{"bufferView":1,"byteOffset":45864,"componentType":5126,"count":1830,"type":"VEC3","name":"accessorNormals"},{"bufferView":2,"byteOffset":7968,"componentType":5126,"count":1830,"type":"VEC2","name":"accessorUVs"},{"bufferView":0,"byteOffset":5652,"componentType":5123,"count":3540,"type":"SCALAR","name":"accessorIndices"},{"bufferView":1,"byteOffset":67824,"componentType":5126,"count":3540,"max":[1.88050532,7.16551,3.066366],"min":[-1.88387656,0.774374247,-0.0216882229],"type":"VEC3","name":"accessorPositions"},{"bufferView":1,"byteOffset":110304,"componentType":5126,"count":3540,"type":"VEC3","name":"accessorNormals"},{"bufferView":2,"byteOffset":22608,"componentType":5126,"count":3540,"type":"VEC2","name":"accessorUVs"},{"bufferView":0,"byteOffset":12732,"componentType":5123,"count":2418,"type":"SCALAR","name":"accessorIndices"},{"bufferView":1,"byteOffset":152784,"componentType":5126,"count":2418,"max":[1.08118367,2.07378674,3.96781921],"min":[-1.08118367,-1.19426918,-1.66067266],"type":"VEC3","name":"accessorPositions"},{"bufferView":1,"byteOffset":181800,"componentType":5126,"count":2418,"type":"VEC3","name":"accessorNormals"},{"bufferView":2,"byteOffset":50928,"componentType":5126,"count":2418,"type":"VEC2","name":"accessorUVs"},{"bufferView":0,"byteOffset":17568,"componentType":5123,"count":1956,"type":"SCALAR","name":"accessorIndices"},{"bufferView":1,"byteOffset":210816,"componentType":5126,"count":1956,"max":[0.882823765,2.93501425,3.45493484],"min":[-0.885212,-1.25156713,-1.720799],"type":"VEC3","name":"accessorPositions"},{"bufferView":1,"byteOffset":234288,"componentType":5126,"count":1956,"type":"VEC3","name":"accessorNormals"},{"bufferView":2,"byteOffset":70272,"componentType":5126,"count":1956,"type":"VEC2","name":"accessorUVs"},{"bufferView":0,"byteOffset":21480,"componentType":5123,"count":2334,"type":"SCALAR","name":"accessorIndices"},{"bufferView":1,"byteOffset":257760,"componentType":5126,"count":2334,"max":[0.852541447,0.0551368,0.125238657],"min":[-0.852541566,-0.9039743,-0.09028721],"type":"VEC3","name":"accessorPositions"},{"bufferView":1,"byteOffset":285768,"componentType":5126,"count":2334,"type":"VEC3","name":"accessorNormals"},{"bufferView":2,"byteOffset":85920,"componentType":5126,"count":2334,"type":"VEC2","name":"accessorUVs"},{"bufferView":0,"byteOffset":26148,"componentType":5123,"count":4932,"type":"SCALAR","name":"accessorIndices"},{"bufferView":1,"byteOffset":313776,"componentType":5126,"count":4932,"max":[1.33679128,0.392941445,0.3929423],"min":[-1.33679128,-0.392941445,-0.3929423],"type":"VEC3","name":"accessorPositions"},{"bufferView":1,"byteOffset":372960,"componentType":5126,"count":4932,"type":"VEC3","name":"accessorNormals"},{"bufferView":2,"byteOffset":104592,"componentType":5126,"count":4932,"type":"VEC2","name":"accessorUVs"},{"bufferView":0,"byteOffset":36012,"componentType":5123,"count":3336,"type":"SCALAR","name":"accessorIndices"},{"bufferView":1,"byteOffset":432144,"componentType":5126,"count":3336,"max":[1.30401421,1.32952261,2.38561559],"min":[-1.30401373,0.113122642,-4.31789827],"type":"VEC3","name":"accessorPositions"},{"bufferView":1,"byteOffset":472176,"componentType":5126,"count":3336,"type":"VEC3","name":"accessorNormals"},{"bufferView":2,"byteOffset":144048,"componentType":5126,"count":3336,"type":"VEC2","name":"accessorUVs"},{"bufferView":0,"byteOffset":42684,"componentType":5123,"count":16176,"type":"SCALAR","name":"accessorIndices"},{"bufferView":1,"byteOffset":512208,"componentType":5126,"count":16176,"max":[1.13892174,2.01937246,3.81369781],"min":[-1.13892233,0.139327228,1.90813923],"type":"VEC3","name":"accessorPositions"},{"bufferView":1,"byteOffset":706320,"componentType":5126,"count":16176,"type":"VEC3","name":"accessorNormals"},{"bufferView":2,"byteOffset":170736,"componentType":5126,"count":16176,"type":"VEC2","name":"accessorUVs"},{"bufferView":0,"byteOffset":75036,"componentType":5123,"count":72,"type":"SCALAR","name":"accessorIndices"},{"bufferView":1,"byteOffset":900432,"componentType":5126,"count":72,"max":[0.8532673,1.67912388,3.383502],"min":[-0.9014682,0.858993053,1.92028379],"type":"VEC3","name":"accessorPositions"},{"bufferView":1,"byteOffset":901296,"componentType":5126,"count":72,"type":"VEC3","name":"accessorNormals"},{"bufferView":2,"byteOffset":300144,"componentType":5126,"count":72,"type":"VEC2","name":"accessorUVs"},{"bufferView":0,"byteOffset":75180,"componentType":5123,"count":1272,"type":"SCALAR","name":"accessorIndices"},{"bufferView":1,"byteOffset":902160,"componentType":5126,"count":1272,"max":[0.8529686,0.430229872,3.751708],"min":[-0.852969468,0.3103815,3.662959],"type":"VEC3","name":"accessorPositions"},{"bufferView":1,"byteOffset":917424,"componentType":5126,"count":1272,"type":"VEC3","name":"accessorNormals"},{"bufferView":2,"byteOffset":300720,"componentType":5126,"count":1272,"type":"VEC2","name":"accessorUVs"},{"bufferView":0,"byteOffset":77724,"componentType":5123,"count":1272,"type":"SCALAR","name":"accessorIndices"},{"bufferView":1,"byteOffset":932688,"componentType":5126,"count":1272,"max":[1.24734712,0.5028863,-4.25233459],"min":[-1.24734545,0.252081156,-4.336263],"type":"VEC3","name":"accessorPositions"},{"bufferView":1,"byteOffset":947952,"componentType":5126,"count":1272,"type":"VEC3","name":"accessorNormals"},{"bufferView":2,"byteOffset":310896,"componentType":5126,"count":1272,"type":"VEC2","name":"accessorUVs"},{"bufferView":0,"byteOffset":80268,"componentType":5123,"count":150,"type":"SCALAR","name":"accessorIndices"},{"bufferView":1,"byteOffset":963216,"componentType":5126,"count":150,"max":[0.8388835,1.8887,2.10239434],"min":[-0.838883936,1.79679632,1.995995],"type":"VEC3","name":"accessorPositions"},{"bufferView":1,"byteOffset":965016,"componentType":5126,"count":150,"type":"VEC3","name":"accessorNormals"},{"bufferView":2,"byteOffset":321072,"componentType":5126,"count":150,"type":"VEC2","name":"accessorUVs"},{"bufferView":0,"byteOffset":80568,"componentType":5123,"count":2466,"type":"SCALAR","name":"accessorIndices"},{"bufferView":1,"byteOffset":966816,"componentType":5126,"count":2466,"max":[0.155692816,0.392941445,0.392942071],"min":[-0.155692816,-0.392941445,-0.392942071],"type":"VEC3","name":"accessorPositions"},{"bufferView":1,"byteOffset":996408,"componentType":5126,"count":2466,"type":"VEC3","name":"accessorNormals"},{"bufferView":2,"byteOffset":322272,"componentType":5126,"count":2466,"type":"VEC2","name":"accessorUVs"},{"bufferView":0,"byteOffset":85500,"componentType":5123,"count":2466,"type":"SCALAR","name":"accessorIndices"},{"bufferView":1,"byteOffset":1026000,"componentType":5126,"count":2466,"max":[0.155692935,0.392941445,0.392942071],"min":[-0.155692935,-0.392941445,-0.392942071],"type":"VEC3","name":"accessorPositions"},{"bufferView":1,"byteOffset":1055592,"componentType":5126,"count":2466,"type":"VEC3","name":"accessorNormals"},{"bufferView":2,"byteOffset":342000,"componentType":5126,"count":2466,"type":"VEC2","name":"accessorUVs"},{"bufferView":0,"byteOffset":90432,"componentType":5123,"count":339,"type":"SCALAR","name":"accessorIndices"},{"bufferView":1,"byteOffset":1085184,"componentType":5126,"count":339,"max":[0.8175181,0.394674778,0.2235136],"min":[-0.8175182,-0.510759,-0.0453007221],"type":"VEC3","name":"accessorPositions"},{"bufferView":1,"byteOffset":1089252,"componentType":5126,"count":339,"type":"VEC3","name":"accessorNormals"},{"bufferView":2,"byteOffset":361728,"componentType":5126,"count":339,"type":"VEC2","name":"accessorUVs"},{"bufferView":0,"byteOffset":91112,"componentType":5123,"count":1200,"type":"SCALAR","name":"accessorIndices"},{"bufferView":1,"byteOffset":1093320,"componentType":5126,"count":1200,"max":[0.9032164,1.99232531,1.08873808],"min":[-0.903216243,1.83997083,0.354493558],"type":"VEC3","name":"accessorPositions"},{"bufferView":1,"byteOffset":1107720,"componentType":5126,"count":1200,"type":"VEC3","name":"accessorNormals"},{"bufferView":2,"byteOffset":364440,"componentType":5126,"count":1200,"type":"VEC2","name":"accessorUVs"},{"bufferView":3,"componentType":5123,"count":1200,"type":"VEC4","name":"accessorJoints"},{"bufferView":4,"componentType":5126,"count":1200,"type":"VEC4","name":"accessorWeights"},{"bufferView":5,"componentType":5126,"count":3,"type":"MAT4","name":"accessorInverseBindMatrices"}],"bufferViews":[{"buffer":0,"byteLength":93512,"name":"bufferViewScalar"},{"buffer":0,"byteOffset":93512,"byteLength":1122120,"byteStride":12,"name":"bufferViewFloatVec3"},{"buffer":0,"byteOffset":1215632,"byteLength":374040,"byteStride":8,"name":"bufferViewFloatVec2"},{"buffer":0,"byteOffset":1589672,"byteLength":9600,"byteStride":8,"name":"bufferViewUnsignedShortVec4"},{"buffer":0,"byteOffset":1599272,"byteLength":19200,"byteStride":16,"name":"bufferViewFloatVec4"},{"buffer":0,"byteOffset":1618472,"byteLength":192,"name":"bufferViewFloatMat4"}],"buffers":[{"uri":"ASO_Boarding_Stairs_LOD00.bin","byteLength":1618664}],"materials":[{"pbrMetallicRoughness":{"baseColorTexture":{"index":0},"metallicRoughnessTexture":{"index":1}},"normalTexture":{"index":2},"occlusionTexture":{"index":1},"name":"Base"},{"pbrMetallicRoughness":{"baseColorTexture":{"index":3},"metallicRoughnessTexture":{"index":4}},"normalTexture":{"index":5},"occlusionTexture":{"index":4},"name":"Stair"},{"pbrMetallicRoughness":{"baseColorTexture":{"index":6},"metallicRoughnessTexture":{"index":7}},"normalTexture":{"index":8},"occlusionTexture":{"index":7},"name":"Cabine"},{"pbrMetallicRoughness":{"baseColorTexture":{"index":9},"metallicRoughnessTexture":{"index":10}},"occlusionTexture":{"index":10},"alphaMode":"BLEND","name":"Window"},{"pbrMetallicRoughness":{"baseColorTexture":{"index":11},"metallicRoughnessTexture":{"index":12}},"normalTexture":{"index":13},"occlusionTexture":{"index":12},"emissiveFactor":[1.0,0.95588243,0.5],"name":"Headlight_Emi"},{"pbrMetallicRoughness":{"baseColorTexture":{"index":14},"metallicRoughnessTexture":{"index":15}},"normalTexture":{"index":16},"occlusionTexture":{"index":15},"emissiveFactor":[1.0,0.5235294,0.5],"name":"Backlight_Emi"},{"pbrMetallicRoughness":{"baseColorTexture":{"index":17},"metallicRoughnessTexture":{"index":18}},"normalTexture":{"index":19},"occlusionTexture":{"index":18},"emissiveFactor":[0.956834555,0.520183861,0.0],"name":"Gyrolight_O_Emi"}],"textures":[{"source":0,"name":"Boarding_Stairs_Base_Albedo"},{"source":1,"name":"Boarding_Stairs_Base_COMP"},{"source":2,"name":"Boarding_Stairs_Base_Normal"},{"source":3,"name":"Boarding_Stairs_Stairs_Albedo"},{"source":4,"name":"Boarding_Stairs_Stairs_COMP"},{"source":5,"name":"Boarding_Stairs_Stairs_Normal"},{"source":6,"name":"Boarding_Stairs_Cabine_Albedo"},{"source":7,"name":"Boarding_Stairs_Cabine_COMP"},{"source":8,"name":"Boarding_Stairs_Cabine_Normal"},{"source":9,"name":"Window_FullReflection02_Parallax_Albedo"},{"source":10,"name":"Window_FullReflection_COMP"},{"source":6,"name":"Boarding_Stairs_Cabine_Albedo"},{"source":7,"name":"Boarding_Stairs_Cabine_COMP"},{"source":8,"name":"Boarding_Stairs_Cabine_Normal"},{"source":0,"name":"Boarding_Stairs_Base_Albedo"},{"source":1,"name":"Boarding_Stairs_Base_COMP"},{"source":2,"name":"Boarding_Stairs_Base_Normal"},{"source":6,"name":"Boarding_Stairs_Cabine_Albedo"},{"source":7,"name":"Boarding_Stairs_Cabine_COMP"},{"source":8,"name":"Boarding_Stairs_Cabine_Normal"}],"images":[{"uri":"Boarding_Stairs_Base_Albedo.png"},{"uri":"Boarding_Stairs_Base_COMP.png"},{"uri":"Boarding_Stairs_Base_Normal.png"},{"uri":"Boarding_Stairs_Stairs_Albedo.png"},{"uri":"Boarding_Stairs_Stairs_COMP.png"},{"uri":"Boarding_Stairs_Stairs_Normal.png"},{"uri":"Boarding_Stairs_Cabine_Albedo.png"},{"uri":"Boarding_Stairs_Cabine_COMP.png"},{"uri":"Boarding_Stairs_Cabine_Normal.png"},{"uri":"Window_FullReflection02_Parallax_Albedo.png"},{"uri":"Window_FullReflection_COMP.png"}],"skins":[{"inverseBindMatrices":70,"skeleton":0,"joints":[0,1,6],"name":"skeleton #0"}]}