{"asset":{"version":"2.0","generator":"babylon.js glTF exporter for 3dsmax 2019 v1.5.0","extensions":{"ASOBO_normal_map_convention":{"tangent_space_convention":"DirectX"}}},"extensionsUsed":["ASOBO_normal_map_convention","ASOBO_animation_retargeting","ASOBO_macro_light"],"scene":0,"scenes":[{"nodes":[0],"extensions":{}}],"nodes":[{"children":[1,6,7,8,9,11,13,15,17,18,19,20,21],"translation":[0.0,0.0,0.0],"rotation":[0.0,0.0,0.0,1.0],"scale":[1.0,1.0,1.0],"name":"SOL","extensions":{"ASOBO_animation_retargeting":{"id":"SOL"}}},{"children":[2,5],"translation":[0.0,1.35827959,-2.71682644],"rotation":[0.0703595653,0.0,0.0,0.9975217],"scale":[1.0,1.0,1.0],"name":"Rotation_CTRL","extensions":{"ASOBO_animation_retargeting":{"id":"Rotation_CTRL"}}},{"children":[3,4],"translation":[0.0,0.372752547,-0.03481269],"rotation":[0.445339,0.0,0.0,0.895362],"scale":[1.0,0.999999762,0.999999762],"name":"Deployment_CTRL","extensions":{"ASOBO_animation_retargeting":{"id":"Deployment_CTRL"}}},{"translation":[0.0,6.260292,2.65373564],"rotation":[-0.445339054,0.0,0.0,0.895362],"scale":[1.0,1.00000024,1.00000024],"name":"TARGET_DOOR","extensions":{"ASOBO_animation_retargeting":{"id":"TARGET_DOOR"}}},{"mesh":0,"translation":[0.0,2.38418579E-07,-2.38418579E-07],"rotation":[0.0,0.0,0.0,1.0],"scale":[1.0,1.00000024,1.00000024],"name":"Ramp_End","extensions":{"ASOBO_animation_retargeting":{"id":"x4_Ramp_End"}}},{"mesh":1,"translation":[0.0,1.1920929E-07,0.0],"rotation":[0.0,0.0,0.0,1.0],"scale":[1.0,1.0,1.0],"name":"Ramp_Start","extensions":{"ASOBO_animation_retargeting":{"id":"x4_Ramp_Start"}}},{"translation":[0.0,1.935182,1.0919714],"rotation":[-0.126718327,0.0,0.0,0.99193877],"scale":[1.0,1.0,1.0],"name":"Pistons_2_CTRL","extensions":{"ASOBO_animation_retargeting":{"id":"Pistons_2_CTRL"}}},{"translation":[0.0,0.402,-1.379],"rotation":[-1.14440918E-05,0.0,0.0,1.0],"scale":[1.0,1.0,1.0],"name":"Wheel_BACK_Ctrl","extensions":{"ASOBO_animation_retargeting":{"id":"Wheel_BACK_Ctrl"}}},{"translation":[-0.317009032,0.288653731,2.45944452],"rotation":[0.0,0.0,0.0,1.0],"scale":[1.0,1.0,1.0],"name":"PILOT_0","extensions":{"ASOBO_animation_retargeting":{"id":"PILOT_0"}}},{"children":[10],"translation":[1.211,0.402,1.63999987],"rotation":[-1.14440918E-05,4.065758E-20,-3.55271368E-15,1.0],"scale":[1.0,1.0,1.0],"name":"Wheel_LEFT_FRONT_Ctrl001","extensions":{"ASOBO_animation_retargeting":{"id":"Wheel_LEFT_FRONT_Ctrl001"}}},{"translation":[0.0,0.0,1.1920929E-07],"rotation":[-1.14440918E-05,0.0,0.0,1.0],"scale":[1.0,1.0,1.0],"name":"Wheel_LEFT_FRONT_Ctrl","extensions":{"ASOBO_animation_retargeting":{"id":"Wheel_LEFT_FRONT_Ctrl"}}},{"children":[12],"translation":[-1.211,0.402,1.63999987],"rotation":[0.0,0.0,-1.42108547E-14,1.0],"scale":[1.0,1.0,1.0],"name":"Wheel_RIGHT_FRONT_Ctrl001","extensions":{"ASOBO_animation_retargeting":{"id":"Wheel_RIGHT_FRONT_Ctrl001"}}},{"translation":[0.0,0.0,0.0],"rotation":[-2.38418579E-07,0.0,0.0,1.0],"scale":[1.0,1.0,1.0],"name":"Wheel_RIGHT_FRONT_Ctrl","extensions":{"ASOBO_animation_retargeting":{"id":"Wheel_RIGHT_FRONT_Ctrl"}}},{"children":[14],"translation":[-0.782557845,1.93066835,2.04514623],"rotation":[0.0,0.0,0.0,1.0],"scale":[1.0,1.0,1.0],"name":"Gyrolight_Ctrl001","extensions":{"ASOBO_animation_retargeting":{"id":"Gyrolight_Ctrl001"}}},{"translation":[0.0,2.38418579E-07,0.0],"rotation":[-5.96046448E-08,-0.258819,-2.98023224E-08,0.9659259],"scale":[1.0,1.0,1.0],"name":"Gyrolight_O1","extensions":{"ASOBO_macro_light":{"color":[1.0,0.5884637,1E-06],"intensity":2.0,"cone_angle":120.0,"has_simmetry":false,"flash_frequency":0.0,"flash_duration":0.0,"flash_phase":0.0,"rotation_speed":0.0,"day_night_cycle":false},"ASOBO_animation_retargeting":{"id":"Gyrolight_O1"}}},{"children":[16],"translation":[0.786193,1.93066835,2.04514623],"rotation":[0.0,0.0,0.0,1.0],"scale":[1.0,1.0,1.0],"name":"Gyrolight_Ctrl002","extensions":{"ASOBO_animation_retargeting":{"id":"Gyrolight_Ctrl002"}}},{"translation":[0.0,0.0,0.0],"rotation":[-1.1920929E-07,0.258819044,0.0,0.9659258],"scale":[1.0,1.0,1.0],"name":"Gyrolight_O2","extensions":{"ASOBO_macro_light":{"color":[1.0,0.5884637,1E-06],"intensity":2.0,"cone_angle":120.0,"has_simmetry":false,"flash_frequency":0.0,"flash_duration":0.0,"flash_phase":0.0,"rotation_speed":0.0,"day_night_cycle":false},"ASOBO_animation_retargeting":{"id":"Gyrolight_O2"}}},{"translation":[0.0,1.913487,1.09760618],"rotation":[-0.126718327,0.0,0.0,0.99193877],"scale":[1.0,1.00000024,1.00000024],"name":"Pistons_1_CTRL","extensions":{"ASOBO_animation_retargeting":{"id":"Pistons_1_CTRL"}}},{"translation":[-0.7641349,0.374503374,3.79103136],"rotation":[-5.96046448E-08,0.0,0.0,0.99999994],"scale":[1.0,1.0,1.0],"name":"Headlight_R","extensions":{"ASOBO_macro_light":{"color":[1.0,0.976548731,0.735647857],"intensity":5.0,"cone_angle":120.0,"has_simmetry":false,"flash_frequency":0.0,"flash_duration":0.0,"flash_phase":0.0,"rotation_speed":0.0,"day_night_cycle":false},"ASOBO_animation_retargeting":{"id":"Headlight_R"}}},{"translation":[0.75177,0.374503374,3.79103136],"rotation":[-5.96046448E-08,0.0,0.0,0.99999994],"scale":[1.0,1.0,1.0],"name":"Headlight_L","extensions":{"ASOBO_macro_light":{"color":[1.0,0.976548731,0.735647857],"intensity":5.0,"cone_angle":120.0,"has_simmetry":false,"flash_frequency":0.0,"flash_duration":0.0,"flash_phase":0.0,"rotation_speed":0.0,"day_night_cycle":false},"ASOBO_animation_retargeting":{"id":"Headlight_L"}}},{"translation":[-1.11672032,0.342846155,-4.41372252],"rotation":[1.0,0.0,0.0,1.49011612E-07],"scale":[1.0,1.0,1.0],"name":"Backlight_R","extensions":{"ASOBO_macro_light":{"color":[1.0,0.0472351052,1E-06],"intensity":1.0,"cone_angle":90.0,"has_simmetry":false,"flash_frequency":0.0,"flash_duration":0.0,"flash_phase":0.0,"rotation_speed":0.0,"day_night_cycle":false},"ASOBO_animation_retargeting":{"id":"Backlight_R"}}},{"translation":[1.10858476,0.3450115,-4.413722],"rotation":[1.0,0.0,0.0,1.49011612E-07],"scale":[1.0,1.0,1.0],"name":"Backlight_L","extensions":{"ASOBO_macro_light":{"color":[1.0,0.0472351052,1E-06],"intensity":1.0,"cone_angle":90.0,"has_simmetry":false,"flash_frequency":0.0,"flash_duration":0.0,"flash_phase":0.0,"rotation_speed":0.0,"day_night_cycle":false},"ASOBO_animation_retargeting":{"id":"Backlight_L"}}}],"meshes":[{"primitives":[{"attributes":{"POSITION":1,"NORMAL":2,"TEXCOORD_0":3},"indices":0,"mode":4,"material":0},{"attributes":{"POSITION":5,"NORMAL":6,"TEXCOORD_0":7},"indices":4,"mode":4,"material":1}],"name":"x4_Ramp_End"},{"primitives":[{"attributes":{"POSITION":9,"NORMAL":10,"TEXCOORD_0":11},"indices":8,"mode":4,"material":0}],"name":"x4_Ramp_Start"}],"accessors":[{"bufferView":0,"componentType":5123,"count":240,"type":"SCALAR","name":"accessorIndices"},{"bufferView":1,"componentType":5126,"count":240,"max":[1.06313324,4.74393,1.36307812],"min":[-1.06552374,-1.64824438,-0.000874757767],"type":"VEC3","name":"accessorPositions"},{"bufferView":1,"byteOffset":2880,"componentType":5126,"count":240,"type":"VEC3","name":"accessorNormals"},{"bufferView":2,"componentType":5126,"count":240,"type":"VEC2","name":"accessorUVs"},{"bufferView":0,"byteOffset":480,"componentType":5123,"count":207,"type":"SCALAR","name":"accessorIndices"},{"bufferView":1,"byteOffset":5760,"componentType":5126,"count":207,"max":[1.73333621,6.81260967,2.78172827],"min":[-1.736707,3.585379,-0.0264420509],"type":"VEC3","name":"accessorPositions"},{"bufferView":1,"byteOffset":8244,"componentType":5126,"count":207,"type":"VEC3","name":"accessorNormals"},{"bufferView":2,"byteOffset":1920,"componentType":5126,"count":207,"type":"VEC2","name":"accessorUVs"},{"bufferView":0,"byteOffset":896,"componentType":5123,"count":270,"type":"SCALAR","name":"accessorIndices"},{"bufferView":1,"byteOffset":10728,"componentType":5126,"count":270,"max":[0.882823765,2.91606951,3.45493484],"min":[-0.885212,-1.25156713,-1.720799],"type":"VEC3","name":"accessorPositions"},{"bufferView":1,"byteOffset":13968,"componentType":5126,"count":270,"type":"VEC3","name":"accessorNormals"},{"bufferView":2,"byteOffset":3576,"componentType":5126,"count":270,"type":"VEC2","name":"accessorUVs"}],"bufferViews":[{"buffer":0,"byteLength":1436,"name":"bufferViewScalar"},{"buffer":0,"byteOffset":1436,"byteLength":17208,"byteStride":12,"name":"bufferViewFloatVec3"},{"buffer":0,"byteOffset":18644,"byteLength":5736,"byteStride":8,"name":"bufferViewFloatVec2"}],"buffers":[{"uri":"ASO_Boarding_Stairs_LOD04.bin","byteLength":24380}],"materials":[{"pbrMetallicRoughness":{"baseColorTexture":{"index":0},"metallicRoughnessTexture":{"index":1}},"normalTexture":{"index":2},"occlusionTexture":{"index":1},"name":"Stair"},{"pbrMetallicRoughness":{"baseColorTexture":{"index":3},"metallicRoughnessTexture":{"index":4}},"normalTexture":{"index":5},"occlusionTexture":{"index":4},"name":"Cabine"}],"textures":[{"source":0,"name":"Boarding_Stairs_Stairs_Albedo"},{"source":1,"name":"Boarding_Stairs_Stairs_COMP"},{"source":2,"name":"Boarding_Stairs_Stairs_Normal"},{"source":3,"name":"Boarding_Stairs_Cabine_Albedo"},{"source":4,"name":"Boarding_Stairs_Cabine_COMP"},{"source":5,"name":"Boarding_Stairs_Cabine_Normal"}],"images":[{"uri":"Boarding_Stairs_Stairs_Albedo.png"},{"uri":"Boarding_Stairs_Stairs_COMP.png"},{"uri":"Boarding_Stairs_Stairs_Normal.png"},{"uri":"Boarding_Stairs_Cabine_Albedo.png"},{"uri":"Boarding_Stairs_Cabine_COMP.png"},{"uri":"Boarding_Stairs_Cabine_Normal.png"}]}