{"asset":{"version":"2.0","generator":"babylon.js glTF exporter for 3dsmax 2019 v1.5.0","extensions":{"ASOBO_normal_map_convention":{"tangent_space_convention":"DirectX"}}},"extensionsUsed":["ASOBO_normal_map_convention","ASOBO_animation_retargeting","ASOBO_macro_light"],"scene":0,"scenes":[{"nodes":[0],"extensions":{}}],"nodes":[{"children":[1,6,8,10,11,14,17,19,21,25,27,28,29,30],"translation":[0.0,0.0,0.0],"rotation":[0.0,0.0,0.0,1.0],"scale":[1.0,1.0,1.0],"name":"SOL","extensions":{"ASOBO_animation_retargeting":{"id":"SOL"}}},{"children":[2,5],"translation":[0.0,1.35827959,-2.71682644],"rotation":[0.0703595653,0.0,0.0,0.9975217],"scale":[1.0,1.0,1.0],"name":"Rotation_CTRL","extensions":{"ASOBO_animation_retargeting":{"id":"Rotation_CTRL"}}},{"children":[3,4],"translation":[0.0,0.372752547,-0.03481269],"rotation":[0.445339,0.0,0.0,0.895362],"scale":[1.0,0.999999762,0.999999762],"name":"Deployment_CTRL","extensions":{"ASOBO_animation_retargeting":{"id":"Deployment_CTRL"}}},{"translation":[0.0,6.260292,2.65373564],"rotation":[-0.445339054,0.0,0.0,0.895362],"scale":[1.0,1.00000024,1.00000024],"name":"TARGET_DOOR","extensions":{"ASOBO_animation_retargeting":{"id":"TARGET_DOOR"}}},{"mesh":0,"translation":[0.0,-3.189798,2.94950676],"rotation":[-0.445339054,0.0,0.0,0.895362],"scale":[1.0,1.00000024,1.00000024],"name":"Ramp_End","extensions":{"ASOBO_animation_retargeting":{"id":"x2_Ramp_End"}}},{"mesh":1,"translation":[0.0,-1.1920929E-07,0.0],"rotation":[0.0,0.0,0.0,1.0],"scale":[1.0,1.0,1.0],"name":"Ramp_Start","extensions":{"ASOBO_animation_retargeting":{"id":"x2_Ramp_Start"}}},{"children":[7],"translation":[0.0,1.935182,1.0919714],"rotation":[-0.126718327,0.0,0.0,0.99193877],"scale":[1.0,1.0,1.0],"name":"Pistons_2_CTRL","extensions":{"ASOBO_animation_retargeting":{"id":"Pistons_2_CTRL"}}},{"mesh":2,"translation":[0.0,-0.2795868,-3.57627869E-07],"rotation":[0.0,0.0,0.0,1.0],"scale":[1.0,1.00000024,1.00000024],"name":"Piston2","extensions":{"ASOBO_animation_retargeting":{"id":"x2_Piston2"}}},{"children":[9],"translation":[0.0,0.402,-1.379],"rotation":[-1.14440918E-05,0.0,0.0,1.0],"scale":[1.0,1.0,1.0],"name":"Wheel_BACK_Ctrl","extensions":{"ASOBO_animation_retargeting":{"id":"Wheel_BACK_Ctrl"}}},{"mesh":3,"translation":[0.0,-0.387089252,1.37899113],"rotation":[1.14440918E-05,0.0,0.0,1.0],"scale":[1.0,1.0,1.0],"name":"W2","extensions":{"ASOBO_animation_retargeting":{"id":"x2_W2"}}},{"translation":[-0.317009032,0.288653731,2.45944452],"rotation":[0.0,0.0,0.0,1.0],"scale":[1.0,1.0,1.0],"name":"PILOT_0","extensions":{"ASOBO_animation_retargeting":{"id":"PILOT_0"}}},{"children":[12],"translation":[1.211,0.402,1.63999987],"rotation":[-1.14440918E-05,4.065758E-20,-3.55271368E-15,1.0],"scale":[1.0,1.0,1.0],"name":"Wheel_LEFT_FRONT_Ctrl001","extensions":{"ASOBO_animation_retargeting":{"id":"Wheel_LEFT_FRONT_Ctrl001"}}},{"children":[13],"translation":[0.0,0.0,1.1920929E-07],"rotation":[-1.14440918E-05,0.0,0.0,1.0],"scale":[1.0,1.0,1.0],"name":"Wheel_LEFT_FRONT_Ctrl","extensions":{"ASOBO_animation_retargeting":{"id":"Wheel_LEFT_FRONT_Ctrl"}}},{"mesh":4,"translation":[-1.211,-0.38698262,-1.64001751],"rotation":[2.28881836E-05,0.0,0.0,1.0],"scale":[1.0,1.0,1.0],"name":"W1_L","extensions":{"ASOBO_animation_retargeting":{"id":"x2_W1_L"}}},{"children":[15],"translation":[-1.211,0.402,1.63999987],"rotation":[0.0,0.0,-1.42108547E-14,1.0],"scale":[1.0,1.0,1.0],"name":"Wheel_RIGHT_FRONT_Ctrl001","extensions":{"ASOBO_animation_retargeting":{"id":"Wheel_RIGHT_FRONT_Ctrl001"}}},{"children":[16],"translation":[0.0,0.0,0.0],"rotation":[-2.38418579E-07,0.0,0.0,1.0],"scale":[1.0,1.0,1.0],"name":"Wheel_RIGHT_FRONT_Ctrl","extensions":{"ASOBO_animation_retargeting":{"id":"Wheel_RIGHT_FRONT_Ctrl"}}},{"mesh":5,"translation":[0.0299015045,-0.000423073769,-0.00017285347],"rotation":[2.38418579E-07,0.0,0.0,1.0],"scale":[1.0,1.0,1.0],"name":"W1_R","extensions":{"ASOBO_animation_retargeting":{"id":"x2_W1_R"}}},{"children":[18],"translation":[-0.782557845,1.93066835,2.04514623],"rotation":[0.0,0.0,0.0,1.0],"scale":[1.0,1.0,1.0],"name":"Gyrolight_Ctrl001","extensions":{"ASOBO_animation_retargeting":{"id":"Gyrolight_Ctrl001"}}},{"translation":[0.0,2.38418579E-07,0.0],"rotation":[-5.96046448E-08,-0.258819,-2.98023224E-08,0.9659259],"scale":[1.0,1.0,1.0],"name":"Gyrolight_O1","extensions":{"ASOBO_macro_light":{"color":[1.0,0.5884637,1E-06],"intensity":2.0,"cone_angle":120.0,"has_simmetry":false,"flash_frequency":0.0,"flash_duration":0.0,"flash_phase":0.0,"rotation_speed":0.0,"day_night_cycle":false},"ASOBO_animation_retargeting":{"id":"Gyrolight_O1"}}},{"children":[20],"translation":[0.786193,1.93066835,2.04514623],"rotation":[0.0,0.0,0.0,1.0],"scale":[1.0,1.0,1.0],"name":"Gyrolight_Ctrl002","extensions":{"ASOBO_animation_retargeting":{"id":"Gyrolight_Ctrl002"}}},{"translation":[0.0,0.0,0.0],"rotation":[-1.1920929E-07,0.258819044,0.0,0.9659258],"scale":[1.0,1.0,1.0],"name":"Gyrolight_O2","extensions":{"ASOBO_macro_light":{"color":[1.0,0.5884637,1E-06],"intensity":2.0,"cone_angle":120.0,"has_simmetry":false,"flash_frequency":0.0,"flash_duration":0.0,"flash_phase":0.0,"rotation_speed":0.0,"day_night_cycle":false},"ASOBO_animation_retargeting":{"id":"Gyrolight_O2"}}},{"children":[22,23,24],"mesh":6,"translation":[0.0,0.01494233,0.0],"rotation":[0.0,0.0,0.0,1.0],"scale":[1.0,1.0,1.0],"name":"ASO_Boarding_Stairs","extensions":{"ASOBO_animation_retargeting":{"id":"x2_ASO_Boarding_Stairs"}}},{"mesh":7,"translation":[0.0,0.0,0.0],"rotation":[0.0,0.0,0.0,1.0],"scale":[1.0,1.0,1.0],"name":"Gyro_Mesh","extensions":{"ASOBO_animation_retargeting":{"id":"Gyro_Mesh"}}},{"mesh":8,"translation":[0.0,0.0,0.0],"rotation":[0.0,0.0,0.0,1.0],"scale":[1.0,1.0,1.0],"name":"Backlight_Mesh","extensions":{"ASOBO_animation_retargeting":{"id":"Backlight_Mesh"}}},{"mesh":9,"translation":[0.0,0.0,0.0],"rotation":[0.0,0.0,0.0,1.0],"scale":[1.0,1.0,1.0],"name":"Headlight_Mesh","extensions":{"ASOBO_animation_retargeting":{"id":"Headlight_Mesh"}}},{"children":[26],"translation":[0.0,1.913487,1.09760618],"rotation":[-0.126718327,0.0,0.0,0.99193877],"scale":[1.0,1.00000024,1.00000024],"name":"Pistons_1_CTRL","extensions":{"ASOBO_animation_retargeting":{"id":"Pistons_1_CTRL"}}},{"mesh":10,"translation":[0.0,-0.01738453,-1.1920929E-07],"rotation":[2.440402E-08,0.0,0.0,1.0],"scale":[1.0,1.12647343,1.00000036],"name":"Piston1","extensions":{"ASOBO_animation_retargeting":{"id":"x2_Piston1"}}},{"translation":[-0.7641349,0.374503374,3.79103136],"rotation":[-5.96046448E-08,0.0,0.0,0.99999994],"scale":[1.0,1.0,1.0],"name":"Headlight_R","extensions":{"ASOBO_macro_light":{"color":[1.0,0.976548731,0.735647857],"intensity":5.0,"cone_angle":120.0,"has_simmetry":false,"flash_frequency":0.0,"flash_duration":0.0,"flash_phase":0.0,"rotation_speed":0.0,"day_night_cycle":false},"ASOBO_animation_retargeting":{"id":"Headlight_R"}}},{"translation":[0.75177,0.374503374,3.79103136],"rotation":[-5.96046448E-08,0.0,0.0,0.99999994],"scale":[1.0,1.0,1.0],"name":"Headlight_L","extensions":{"ASOBO_macro_light":{"color":[1.0,0.976548731,0.735647857],"intensity":5.0,"cone_angle":120.0,"has_simmetry":false,"flash_frequency":0.0,"flash_duration":0.0,"flash_phase":0.0,"rotation_speed":0.0,"day_night_cycle":false},"ASOBO_animation_retargeting":{"id":"Headlight_L"}}},{"translation":[-1.11672032,0.342846155,-4.41372252],"rotation":[1.0,0.0,0.0,1.49011612E-07],"scale":[1.0,1.0,1.0],"name":"Backlight_R","extensions":{"ASOBO_macro_light":{"color":[1.0,0.0472351052,1E-06],"intensity":1.0,"cone_angle":90.0,"has_simmetry":false,"flash_frequency":0.0,"flash_duration":0.0,"flash_phase":0.0,"rotation_speed":0.0,"day_night_cycle":false},"ASOBO_animation_retargeting":{"id":"Backlight_R"}}},{"translation":[1.10858476,0.3450115,-4.413722],"rotation":[1.0,0.0,0.0,1.49011612E-07],"scale":[1.0,1.0,1.0],"name":"Backlight_L","extensions":{"ASOBO_macro_light":{"color":[1.0,0.0472351052,1E-06],"intensity":1.0,"cone_angle":90.0,"has_simmetry":false,"flash_frequency":0.0,"flash_duration":0.0,"flash_phase":0.0,"rotation_speed":0.0,"day_night_cycle":false},"ASOBO_animation_retargeting":{"id":"Backlight_L"}}}],"meshes":[{"primitives":[{"attributes":{"POSITION":1,"NORMAL":2,"TEXCOORD_0":3},"indices":0,"mode":4,"material":0},{"attributes":{"POSITION":5,"NORMAL":6,"TEXCOORD_0":7},"indices":4,"mode":4,"material":1},{"attributes":{"POSITION":9,"NORMAL":10,"TEXCOORD_0":11},"indices":8,"mode":4,"material":2}],"name":"x2_Ramp_End"},{"primitives":[{"attributes":{"POSITION":13,"NORMAL":14,"TEXCOORD_0":15},"indices":12,"mode":4,"material":0},{"attributes":{"POSITION":17,"NORMAL":18,"TEXCOORD_0":19},"indices":16,"mode":4,"material":1}],"name":"x2_Ramp_Start"},{"primitives":[{"attributes":{"POSITION":21,"NORMAL":22,"TEXCOORD_0":23},"indices":20,"mode":4,"material":0}],"name":"x2_Piston2"},{"primitives":[{"attributes":{"POSITION":25,"NORMAL":26,"TEXCOORD_0":27},"indices":24,"mode":4,"material":2}],"name":"x2_W2"},{"primitives":[{"attributes":{"POSITION":29,"NORMAL":30,"TEXCOORD_0":31},"indices":28,"mode":4,"material":2}],"name":"x2_W1_L"},{"primitives":[{"attributes":{"POSITION":33,"NORMAL":34,"TEXCOORD_0":35},"indices":32,"mode":4,"material":2}],"name":"x2_W1_R"},{"primitives":[{"attributes":{"POSITION":37,"NORMAL":38,"TEXCOORD_0":39},"indices":36,"mode":4,"material":0},{"attributes":{"POSITION":41,"NORMAL":42,"TEXCOORD_0":43},"indices":40,"mode":4,"material":2},{"attributes":{"POSITION":45,"NORMAL":46,"TEXCOORD_0":47},"indices":44,"mode":4,"material":3}],"name":"x2_ASO_Boarding_Stairs"},{"primitives":[{"attributes":{"POSITION":49,"NORMAL":50,"TEXCOORD_0":51},"indices":48,"mode":4,"material":4}],"name":"Gyro_Mesh"},{"primitives":[{"attributes":{"POSITION":53,"NORMAL":54,"TEXCOORD_0":55},"indices":52,"mode":4,"material":5}],"name":"Backlight_Mesh"},{"primitives":[{"attributes":{"POSITION":57,"NORMAL":58,"TEXCOORD_0":59},"indices":56,"mode":4,"material":6}],"name":"Headlight_Mesh"},{"primitives":[{"attributes":{"POSITION":61,"NORMAL":62,"TEXCOORD_0":63},"indices":60,"mode":4,"material":0}],"name":"x2_Piston1"}],"accessors":[{"bufferView":0,"componentType":5123,"count":504,"type":"SCALAR","name":"accessorIndices"},{"bufferView":1,"componentType":5126,"count":504,"max":[0.9420318,5.77075052,4.45073557],"min":[-0.944425,2.840548,0.741245449],"type":"VEC3","name":"accessorPositions"},{"bufferView":1,"byteOffset":6048,"componentType":5126,"count":504,"type":"VEC3","name":"accessorNormals"},{"bufferView":2,"componentType":5126,"count":504,"type":"VEC2","name":"accessorUVs"},{"bufferView":0,"byteOffset":1008,"componentType":5123,"count":342,"type":"SCALAR","name":"accessorIndices"},{"bufferView":1,"byteOffset":12096,"componentType":5126,"count":342,"max":[1.06313324,7.02765,4.648327],"min":[-1.06552374,2.84715223,-0.550745368],"type":"VEC3","name":"accessorPositions"},{"bufferView":1,"byteOffset":16200,"componentType":5126,"count":342,"type":"VEC3","name":"accessorNormals"},{"bufferView":2,"byteOffset":4032,"componentType":5126,"count":342,"type":"VEC2","name":"accessorUVs"},{"bufferView":0,"byteOffset":1692,"componentType":5123,"count":2169,"type":"SCALAR","name":"accessorIndices"},{"bufferView":1,"byteOffset":20304,"componentType":5126,"count":2169,"max":[1.88050532,7.02268,7.47110128],"min":[-1.88387656,3.87670636,1.321341],"type":"VEC3","name":"accessorPositions"},{"bufferView":1,"byteOffset":46332,"componentType":5126,"count":2169,"type":"VEC3","name":"accessorNormals"},{"bufferView":2,"byteOffset":6768,"componentType":5126,"count":2169,"type":"VEC2","name":"accessorUVs"},{"bufferView":0,"byteOffset":6032,"componentType":5123,"count":1464,"type":"SCALAR","name":"accessorIndices"},{"bufferView":1,"byteOffset":72360,"componentType":5126,"count":1464,"max":[1.08118367,2.06929064,3.96781921],"min":[-1.08118367,-1.19426882,-1.66067266],"type":"VEC3","name":"accessorPositions"},{"bufferView":1,"byteOffset":89928,"componentType":5126,"count":1464,"type":"VEC3","name":"accessorNormals"},{"bufferView":2,"byteOffset":24120,"componentType":5126,"count":1464,"type":"VEC2","name":"accessorUVs"},{"bufferView":0,"byteOffset":8960,"componentType":5123,"count":372,"type":"SCALAR","name":"accessorIndices"},{"bufferView":1,"byteOffset":107496,"componentType":5126,"count":372,"max":[0.882823765,2.93501472,3.45493484],"min":[-0.885212,-1.25156689,-1.720799],"type":"VEC3","name":"accessorPositions"},{"bufferView":1,"byteOffset":111960,"componentType":5126,"count":372,"type":"VEC3","name":"accessorNormals"},{"bufferView":2,"byteOffset":35832,"componentType":5126,"count":372,"type":"VEC2","name":"accessorUVs"},{"bufferView":0,"byteOffset":9704,"componentType":5123,"count":474,"type":"SCALAR","name":"accessorIndices"},{"bufferView":1,"byteOffset":116424,"componentType":5126,"count":474,"max":[0.84637785,0.32100296,0.125238657],"min":[-0.846377969,-0.623933434,-0.0876441],"type":"VEC3","name":"accessorPositions"},{"bufferView":1,"byteOffset":122112,"componentType":5126,"count":474,"type":"VEC3","name":"accessorNormals"},{"bufferView":2,"byteOffset":38808,"componentType":5126,"count":474,"type":"VEC2","name":"accessorUVs"},{"bufferView":0,"byteOffset":10652,"componentType":5123,"count":2304,"type":"SCALAR","name":"accessorIndices"},{"bufferView":1,"byteOffset":127800,"componentType":5126,"count":2304,"max":[1.32134652,0.779576063,-0.986235142],"min":[-1.33679092,-0.006306827,-1.77211976],"type":"VEC3","name":"accessorPositions"},{"bufferView":1,"byteOffset":155448,"componentType":5126,"count":2304,"type":"VEC3","name":"accessorNormals"},{"bufferView":2,"byteOffset":42600,"componentType":5126,"count":2304,"type":"VEC2","name":"accessorUVs"},{"bufferView":0,"byteOffset":15260,"componentType":5123,"count":1152,"type":"SCALAR","name":"accessorIndices"},{"bufferView":1,"byteOffset":183096,"componentType":5126,"count":1152,"max":[1.321346,0.779576063,2.03276944],"min":[1.02540541,-0.006306827,1.2468853],"type":"VEC3","name":"accessorPositions"},{"bufferView":1,"byteOffset":196920,"componentType":5126,"count":1152,"type":"VEC3","name":"accessorNormals"},{"bufferView":2,"byteOffset":61032,"componentType":5126,"count":1152,"type":"VEC2","name":"accessorUVs"},{"bufferView":0,"byteOffset":17564,"componentType":5123,"count":1224,"type":"SCALAR","name":"accessorIndices"},{"bufferView":1,"byteOffset":210744,"componentType":5126,"count":1224,"max":[0.155692935,0.392941445,0.392942071],"min":[-0.155692935,-0.392941445,-0.392942071],"type":"VEC3","name":"accessorPositions"},{"bufferView":1,"byteOffset":225432,"componentType":5126,"count":1224,"type":"VEC3","name":"accessorNormals"},{"bufferView":2,"byteOffset":70248,"componentType":5126,"count":1224,"type":"VEC2","name":"accessorUVs"},{"bufferView":0,"byteOffset":20012,"componentType":5123,"count":1440,"type":"SCALAR","name":"accessorIndices"},{"bufferView":1,"byteOffset":240120,"componentType":5126,"count":1440,"max":[1.30401421,1.32952261,2.38561559],"min":[-1.30401373,0.113122642,-4.31789827],"type":"VEC3","name":"accessorPositions"},{"bufferView":1,"byteOffset":257400,"componentType":5126,"count":1440,"type":"VEC3","name":"accessorNormals"},{"bufferView":2,"byteOffset":80040,"componentType":5126,"count":1440,"type":"VEC2","name":"accessorUVs"},{"bufferView":0,"byteOffset":22892,"componentType":5123,"count":5988,"type":"SCALAR","name":"accessorIndices"},{"bufferView":1,"byteOffset":274680,"componentType":5126,"count":5988,"max":[1.13892174,1.79679632,3.810165],"min":[-1.13892233,0.139327228,1.90821934],"type":"VEC3","name":"accessorPositions"},{"bufferView":1,"byteOffset":346536,"componentType":5126,"count":5988,"type":"VEC3","name":"accessorNormals"},{"bufferView":2,"byteOffset":91560,"componentType":5126,"count":5988,"type":"VEC2","name":"accessorUVs"},{"bufferView":0,"byteOffset":34868,"componentType":5123,"count":72,"type":"SCALAR","name":"accessorIndices"},{"bufferView":1,"byteOffset":418392,"componentType":5126,"count":72,"max":[0.8532673,1.68442965,3.383502],"min":[-0.905734658,0.858993053,1.92122889],"type":"VEC3","name":"accessorPositions"},{"bufferView":1,"byteOffset":419256,"componentType":5126,"count":72,"type":"VEC3","name":"accessorNormals"},{"bufferView":2,"byteOffset":139464,"componentType":5126,"count":72,"type":"VEC2","name":"accessorUVs"},{"bufferView":0,"byteOffset":35012,"componentType":5123,"count":150,"type":"SCALAR","name":"accessorIndices"},{"bufferView":1,"byteOffset":420120,"componentType":5126,"count":150,"max":[0.845308959,1.8887,2.10872221],"min":[-0.8453094,1.79679632,1.989667],"type":"VEC3","name":"accessorPositions"},{"bufferView":1,"byteOffset":421920,"componentType":5126,"count":150,"type":"VEC3","name":"accessorNormals"},{"bufferView":2,"byteOffset":140040,"componentType":5126,"count":150,"type":"VEC2","name":"accessorUVs"},{"bufferView":0,"byteOffset":35312,"componentType":5123,"count":120,"type":"SCALAR","name":"accessorIndices"},{"bufferView":1,"byteOffset":423720,"componentType":5126,"count":120,"max":[1.24434364,0.4986629,-4.25233459],"min":[-1.24434209,0.256304622,-4.327671],"type":"VEC3","name":"accessorPositions"},{"bufferView":1,"byteOffset":425160,"componentType":5126,"count":120,"type":"VEC3","name":"accessorNormals"},{"bufferView":2,"byteOffset":141240,"componentType":5126,"count":120,"type":"VEC2","name":"accessorUVs"},{"bufferView":0,"byteOffset":35552,"componentType":5123,"count":144,"type":"SCALAR","name":"accessorIndices"},{"bufferView":1,"byteOffset":426600,"componentType":5126,"count":144,"max":[0.848894954,0.430229872,3.7374928],"min":[-0.8488958,0.3103815,3.662959],"type":"VEC3","name":"accessorPositions"},{"bufferView":1,"byteOffset":428328,"componentType":5126,"count":144,"type":"VEC3","name":"accessorNormals"},{"bufferView":2,"byteOffset":142200,"componentType":5126,"count":144,"type":"VEC2","name":"accessorUVs"},{"bufferView":0,"byteOffset":35840,"componentType":5123,"count":246,"type":"SCALAR","name":"accessorIndices"},{"bufferView":1,"byteOffset":430056,"componentType":5126,"count":246,"max":[0.8175181,0.3625419,0.16183579],"min":[-0.8175182,-0.441235781,-0.0453006029],"type":"VEC3","name":"accessorPositions"},{"bufferView":1,"byteOffset":433008,"componentType":5126,"count":246,"type":"VEC3","name":"accessorNormals"},{"bufferView":2,"byteOffset":143352,"componentType":5126,"count":246,"type":"VEC2","name":"accessorUVs"}],"bufferViews":[{"buffer":0,"byteLength":36332,"name":"bufferViewScalar"},{"buffer":0,"byteOffset":36332,"byteLength":435960,"byteStride":12,"name":"bufferViewFloatVec3"},{"buffer":0,"byteOffset":472292,"byteLength":145320,"byteStride":8,"name":"bufferViewFloatVec2"}],"buffers":[{"uri":"ASO_Boarding_Stairs_LOD02.bin","byteLength":617612}],"materials":[{"pbrMetallicRoughness":{"baseColorTexture":{"index":0},"metallicRoughnessTexture":{"index":1}},"normalTexture":{"index":2},"occlusionTexture":{"index":1},"name":"Base"},{"pbrMetallicRoughness":{"baseColorTexture":{"index":3},"metallicRoughnessTexture":{"index":4}},"normalTexture":{"index":5},"occlusionTexture":{"index":4},"name":"Stair"},{"pbrMetallicRoughness":{"baseColorTexture":{"index":6},"metallicRoughnessTexture":{"index":7}},"normalTexture":{"index":8},"occlusionTexture":{"index":7},"name":"Cabine"},{"pbrMetallicRoughness":{"baseColorTexture":{"index":9},"metallicRoughnessTexture":{"index":10}},"occlusionTexture":{"index":10},"alphaMode":"BLEND","name":"Window"},{"pbrMetallicRoughness":{"baseColorTexture":{"index":11},"metallicRoughnessTexture":{"index":12}},"normalTexture":{"index":13},"occlusionTexture":{"index":12},"emissiveFactor":[0.956834555,0.520183861,0.0],"name":"Gyrolight_O_Emi"},{"pbrMetallicRoughness":{"baseColorTexture":{"index":14},"metallicRoughnessTexture":{"index":15}},"normalTexture":{"index":16},"occlusionTexture":{"index":15},"emissiveFactor":[1.0,0.5235294,0.5],"name":"Backlight_Emi"},{"pbrMetallicRoughness":{"baseColorTexture":{"index":17},"metallicRoughnessTexture":{"index":18}},"normalTexture":{"index":19},"occlusionTexture":{"index":18},"emissiveFactor":[1.0,0.95588243,0.5],"name":"Headlight_Emi"}],"textures":[{"source":0,"name":"Boarding_Stairs_Base_Albedo"},{"source":1,"name":"Boarding_Stairs_Base_COMP"},{"source":2,"name":"Boarding_Stairs_Base_Normal"},{"source":3,"name":"Boarding_Stairs_Stairs_Albedo"},{"source":4,"name":"Boarding_Stairs_Stairs_COMP"},{"source":5,"name":"Boarding_Stairs_Stairs_Normal"},{"source":6,"name":"Boarding_Stairs_Cabine_Albedo"},{"source":7,"name":"Boarding_Stairs_Cabine_COMP"},{"source":8,"name":"Boarding_Stairs_Cabine_Normal"},{"source":9,"name":"Window_FullReflection02_Parallax_Albedo"},{"source":10,"name":"Window_FullReflection_COMP"},{"source":6,"name":"Boarding_Stairs_Cabine_Albedo"},{"source":7,"name":"Boarding_Stairs_Cabine_COMP"},{"source":8,"name":"Boarding_Stairs_Cabine_Normal"},{"source":0,"name":"Boarding_Stairs_Base_Albedo"},{"source":1,"name":"Boarding_Stairs_Base_COMP"},{"source":2,"name":"Boarding_Stairs_Base_Normal"},{"source":6,"name":"Boarding_Stairs_Cabine_Albedo"},{"source":7,"name":"Boarding_Stairs_Cabine_COMP"},{"source":8,"name":"Boarding_Stairs_Cabine_Normal"}],"images":[{"uri":"Boarding_Stairs_Base_Albedo.png"},{"uri":"Boarding_Stairs_Base_COMP.png"},{"uri":"Boarding_Stairs_Base_Normal.png"},{"uri":"Boarding_Stairs_Stairs_Albedo.png"},{"uri":"Boarding_Stairs_Stairs_COMP.png"},{"uri":"Boarding_Stairs_Stairs_Normal.png"},{"uri":"Boarding_Stairs_Cabine_Albedo.png"},{"uri":"Boarding_Stairs_Cabine_COMP.png"},{"uri":"Boarding_Stairs_Cabine_Normal.png"},{"uri":"Window_FullReflection02_Parallax_Albedo.png"},{"uri":"Window_FullReflection_COMP.png"}]}