{"asset":{"version":"2.0","generator":"babylon.js glTF exporter for 3dsmax 2019 v1.5.0","extensions":{"ASOBO_normal_map_convention":{"tangent_space_convention":"DirectX"}}},"extensionsUsed":["ASOBO_normal_map_convention","ASOBO_animation_retargeting","ASOBO_macro_light"],"scene":0,"scenes":[{"nodes":[0],"extensions":{}}],"nodes":[{"children":[1,6,8,10,11,14,17,19,21,24,26,27,28,29,30],"translation":[0.0,0.0,0.0],"rotation":[0.0,0.0,0.0,1.0],"scale":[1.0,1.0,1.0],"name":"SOL","extensions":{"ASOBO_animation_retargeting":{"id":"SOL"}}},{"children":[2,5],"translation":[0.0,1.35827959,-2.71682644],"rotation":[0.0703595653,0.0,0.0,0.9975217],"scale":[1.0,1.0,1.0],"name":"Rotation_CTRL","extensions":{"ASOBO_animation_retargeting":{"id":"Rotation_CTRL"}}},{"children":[3,4],"translation":[0.0,0.372752547,-0.03481269],"rotation":[0.445339,0.0,0.0,0.895362],"scale":[1.0,0.999999762,0.999999762],"name":"Deployment_CTRL","extensions":{"ASOBO_animation_retargeting":{"id":"Deployment_CTRL"}}},{"translation":[0.0,6.260292,2.65373564],"rotation":[-0.445339054,0.0,0.0,0.895362],"scale":[1.0,1.00000024,1.00000024],"name":"TARGET_DOOR","extensions":{"ASOBO_animation_retargeting":{"id":"TARGET_DOOR"}}},{"mesh":0,"translation":[0.0,2.38418579E-07,-2.38418579E-07],"rotation":[0.0,0.0,0.0,1.0],"scale":[1.0,1.00000024,1.00000024],"name":"Ramp_End","extensions":{"ASOBO_animation_retargeting":{"id":"x3_Ramp_End"}}},{"mesh":1,"translation":[0.0,1.1920929E-07,0.0],"rotation":[0.0,0.0,0.0,1.0],"scale":[1.0,1.0,1.0],"name":"Ramp_Start","extensions":{"ASOBO_animation_retargeting":{"id":"x3_Ramp_Start"}}},{"children":[7],"translation":[0.0,1.935182,1.0919714],"rotation":[-0.126718327,0.0,0.0,0.99193877],"scale":[1.0,1.0,1.0],"name":"Pistons_2_CTRL","extensions":{"ASOBO_animation_retargeting":{"id":"Pistons_2_CTRL"}}},{"mesh":2,"translation":[0.0,0.0,0.0],"rotation":[0.0,0.0,0.0,1.0],"scale":[1.0,1.00000024,1.00000024],"name":"Piston2","extensions":{"ASOBO_animation_retargeting":{"id":"x3_Piston2"}}},{"children":[9],"translation":[0.0,0.402,-1.379],"rotation":[-1.14440918E-05,0.0,0.0,1.0],"scale":[1.0,1.0,1.0],"name":"Wheel_BACK_Ctrl","extensions":{"ASOBO_animation_retargeting":{"id":"Wheel_BACK_Ctrl"}}},{"mesh":3,"translation":[0.0,-0.387089252,1.37899113],"rotation":[1.14440918E-05,0.0,0.0,1.0],"scale":[1.0,1.0,1.0],"name":"W2","extensions":{"ASOBO_animation_retargeting":{"id":"x3_W2"}}},{"translation":[-0.317009032,0.288653731,2.45944452],"rotation":[0.0,0.0,0.0,1.0],"scale":[1.0,1.0,1.0],"name":"PILOT_0","extensions":{"ASOBO_animation_retargeting":{"id":"PILOT_0"}}},{"children":[12],"translation":[1.211,0.402,1.63999987],"rotation":[-1.14440918E-05,4.065758E-20,-3.55271368E-15,1.0],"scale":[1.0,1.0,1.0],"name":"Wheel_LEFT_FRONT_Ctrl001","extensions":{"ASOBO_animation_retargeting":{"id":"Wheel_LEFT_FRONT_Ctrl001"}}},{"children":[13],"translation":[0.0,0.0,1.1920929E-07],"rotation":[-1.14440918E-05,0.0,0.0,1.0],"scale":[1.0,1.0,1.0],"name":"Wheel_LEFT_FRONT_Ctrl","extensions":{"ASOBO_animation_retargeting":{"id":"Wheel_LEFT_FRONT_Ctrl"}}},{"mesh":4,"translation":[-1.211,-0.38698262,-1.64001751],"rotation":[2.28881836E-05,0.0,0.0,1.0],"scale":[1.0,1.0,1.0],"name":"W1_L","extensions":{"ASOBO_animation_retargeting":{"id":"x3_W1_L"}}},{"children":[15],"translation":[-1.211,0.402,1.63999987],"rotation":[0.0,0.0,-1.42108547E-14,1.0],"scale":[1.0,1.0,1.0],"name":"Wheel_RIGHT_FRONT_Ctrl001","extensions":{"ASOBO_animation_retargeting":{"id":"Wheel_RIGHT_FRONT_Ctrl001"}}},{"children":[16],"translation":[0.0,0.0,0.0],"rotation":[-2.38418579E-07,0.0,0.0,1.0],"scale":[1.0,1.0,1.0],"name":"Wheel_RIGHT_FRONT_Ctrl","extensions":{"ASOBO_animation_retargeting":{"id":"Wheel_RIGHT_FRONT_Ctrl"}}},{"mesh":5,"translation":[1.211,-0.387056917,-1.6400001],"rotation":[2.38418579E-07,0.0,0.0,1.0],"scale":[1.0,1.0,1.0],"name":"W1_R","extensions":{"ASOBO_animation_retargeting":{"id":"x3_W1_R"}}},{"children":[18],"translation":[-0.782557845,1.93066835,2.04514623],"rotation":[0.0,0.0,0.0,1.0],"scale":[1.0,1.0,1.0],"name":"Gyrolight_Ctrl001","extensions":{"ASOBO_animation_retargeting":{"id":"Gyrolight_Ctrl001"}}},{"translation":[0.0,2.38418579E-07,0.0],"rotation":[-5.96046448E-08,-0.258819,-2.98023224E-08,0.9659259],"scale":[1.0,1.0,1.0],"name":"Gyrolight_O1","extensions":{"ASOBO_macro_light":{"color":[1.0,0.5884637,1E-06],"intensity":2.0,"cone_angle":120.0,"has_simmetry":false,"flash_frequency":0.0,"flash_duration":0.0,"flash_phase":0.0,"rotation_speed":0.0,"day_night_cycle":false},"ASOBO_animation_retargeting":{"id":"Gyrolight_O1"}}},{"children":[20],"translation":[0.786193,1.93066835,2.04514623],"rotation":[0.0,0.0,0.0,1.0],"scale":[1.0,1.0,1.0],"name":"Gyrolight_Ctrl002","extensions":{"ASOBO_animation_retargeting":{"id":"Gyrolight_Ctrl002"}}},{"translation":[0.0,0.0,0.0],"rotation":[-1.1920929E-07,0.258819044,0.0,0.9659258],"scale":[1.0,1.0,1.0],"name":"Gyrolight_O2","extensions":{"ASOBO_macro_light":{"color":[1.0,0.5884637,1E-06],"intensity":2.0,"cone_angle":120.0,"has_simmetry":false,"flash_frequency":0.0,"flash_duration":0.0,"flash_phase":0.0,"rotation_speed":0.0,"day_night_cycle":false},"ASOBO_animation_retargeting":{"id":"Gyrolight_O2"}}},{"children":[22,23],"mesh":6,"translation":[0.0,0.01494233,0.0],"rotation":[0.0,0.0,0.0,1.0],"scale":[1.0,1.0,1.0],"name":"ASO_Boarding_Stairs","extensions":{"ASOBO_animation_retargeting":{"id":"x3_ASO_Boarding_Stairs"}}},{"mesh":7,"translation":[0.0,0.0,0.0],"rotation":[0.0,0.0,0.0,1.0],"scale":[1.0,1.0,1.0],"name":"Backlight_Mesh","extensions":{"ASOBO_animation_retargeting":{"id":"Backlight_Mesh"}}},{"mesh":8,"translation":[0.0,0.0,0.0],"rotation":[0.0,0.0,0.0,1.0],"scale":[1.0,1.0,1.0],"name":"Headlight_Mesh","extensions":{"ASOBO_animation_retargeting":{"id":"Headlight_Mesh"}}},{"children":[25],"translation":[0.0,1.913487,1.09760618],"rotation":[-0.126718327,0.0,0.0,0.99193877],"scale":[1.0,1.00000024,1.00000024],"name":"Pistons_1_CTRL","extensions":{"ASOBO_animation_retargeting":{"id":"Pistons_1_CTRL"}}},{"mesh":9,"translation":[0.0,0.0,0.0],"rotation":[7.45058149E-09,0.0,0.0,1.0],"scale":[1.0,2.700274,0.9999999],"name":"Piston1","extensions":{"ASOBO_animation_retargeting":{"id":"x3_Piston1"}}},{"mesh":10,"translation":[0.0,0.01494233,0.0],"rotation":[0.0,0.0,0.0,1.0],"scale":[1.0,1.0,1.0],"name":"Gyro_Mesh","extensions":{"ASOBO_animation_retargeting":{"id":"Gyro_Mesh"}}},{"translation":[-0.7641349,0.374503374,3.79103136],"rotation":[-5.96046448E-08,0.0,0.0,0.99999994],"scale":[1.0,1.0,1.0],"name":"Headlight_R","extensions":{"ASOBO_macro_light":{"color":[1.0,0.976548731,0.735647857],"intensity":5.0,"cone_angle":120.0,"has_simmetry":false,"flash_frequency":0.0,"flash_duration":0.0,"flash_phase":0.0,"rotation_speed":0.0,"day_night_cycle":false},"ASOBO_animation_retargeting":{"id":"Headlight_R"}}},{"translation":[0.75177,0.374503374,3.79103136],"rotation":[-5.96046448E-08,0.0,0.0,0.99999994],"scale":[1.0,1.0,1.0],"name":"Headlight_L","extensions":{"ASOBO_macro_light":{"color":[1.0,0.976548731,0.735647857],"intensity":5.0,"cone_angle":120.0,"has_simmetry":false,"flash_frequency":0.0,"flash_duration":0.0,"flash_phase":0.0,"rotation_speed":0.0,"day_night_cycle":false},"ASOBO_animation_retargeting":{"id":"Headlight_L"}}},{"translation":[-1.11672032,0.342846155,-4.41372252],"rotation":[1.0,0.0,0.0,1.49011612E-07],"scale":[1.0,1.0,1.0],"name":"Backlight_R","extensions":{"ASOBO_macro_light":{"color":[1.0,0.0472351052,1E-06],"intensity":1.0,"cone_angle":90.0,"has_simmetry":false,"flash_frequency":0.0,"flash_duration":0.0,"flash_phase":0.0,"rotation_speed":0.0,"day_night_cycle":false},"ASOBO_animation_retargeting":{"id":"Backlight_R"}}},{"translation":[1.10858476,0.3450115,-4.413722],"rotation":[1.0,0.0,0.0,1.49011612E-07],"scale":[1.0,1.0,1.0],"name":"Backlight_L","extensions":{"ASOBO_macro_light":{"color":[1.0,0.0472351052,1E-06],"intensity":1.0,"cone_angle":90.0,"has_simmetry":false,"flash_frequency":0.0,"flash_duration":0.0,"flash_phase":0.0,"rotation_speed":0.0,"day_night_cycle":false},"ASOBO_animation_retargeting":{"id":"Backlight_L"}}}],"meshes":[{"primitives":[{"attributes":{"POSITION":1,"NORMAL":2,"TEXCOORD_0":3},"indices":0,"mode":4,"material":0},{"attributes":{"POSITION":5,"NORMAL":6,"TEXCOORD_0":7},"indices":4,"mode":4,"material":1},{"attributes":{"POSITION":9,"NORMAL":10,"TEXCOORD_0":11},"indices":8,"mode":4,"material":2}],"name":"x3_Ramp_End"},{"primitives":[{"attributes":{"POSITION":13,"NORMAL":14,"TEXCOORD_0":15},"indices":12,"mode":4,"material":0},{"attributes":{"POSITION":17,"NORMAL":18,"TEXCOORD_0":19},"indices":16,"mode":4,"material":1}],"name":"x3_Ramp_Start"},{"primitives":[{"attributes":{"POSITION":21,"NORMAL":22,"TEXCOORD_0":23},"indices":20,"mode":4,"material":0}],"name":"x3_Piston2"},{"primitives":[{"attributes":{"POSITION":25,"NORMAL":26,"TEXCOORD_0":27},"indices":24,"mode":4,"material":2}],"name":"x3_W2"},{"primitives":[{"attributes":{"POSITION":29,"NORMAL":30,"TEXCOORD_0":31},"indices":28,"mode":4,"material":2}],"name":"x3_W1_L"},{"primitives":[{"attributes":{"POSITION":33,"NORMAL":34,"TEXCOORD_0":35},"indices":32,"mode":4,"material":2}],"name":"x3_W1_R"},{"primitives":[{"attributes":{"POSITION":37,"NORMAL":38,"TEXCOORD_0":39},"indices":36,"mode":4,"material":0},{"attributes":{"POSITION":41,"NORMAL":42,"TEXCOORD_0":43},"indices":40,"mode":4,"material":2},{"attributes":{"POSITION":45,"NORMAL":46,"TEXCOORD_0":47},"indices":44,"mode":4,"material":3}],"name":"x3_ASO_Boarding_Stairs"},{"primitives":[{"attributes":{"POSITION":49,"NORMAL":50,"TEXCOORD_0":51},"indices":48,"mode":4,"material":4}],"name":"Backlight_Mesh"},{"primitives":[{"attributes":{"POSITION":53,"NORMAL":54,"TEXCOORD_0":55},"indices":52,"mode":4,"material":5}],"name":"Headlight_Mesh"},{"primitives":[{"attributes":{"POSITION":57,"NORMAL":58,"TEXCOORD_0":59},"indices":56,"mode":4,"material":0}],"name":"x3_Piston1"},{"primitives":[{"attributes":{"POSITION":61,"NORMAL":62,"TEXCOORD_0":63},"indices":60,"mode":4,"material":6}],"name":"Gyro_Mesh"}],"accessors":[{"bufferView":0,"componentType":5123,"count":201,"type":"SCALAR","name":"accessorIndices"},{"bufferView":1,"componentType":5126,"count":201,"max":[0.9420318,3.62457538,1.26780677],"min":[-0.944425,-0.69539547,0.5928998],"type":"VEC3","name":"accessorPositions"},{"bufferView":1,"byteOffset":2412,"componentType":5126,"count":201,"type":"VEC3","name":"accessorNormals"},{"bufferView":2,"componentType":5126,"count":201,"type":"VEC2","name":"accessorUVs"},{"bufferView":0,"byteOffset":404,"componentType":5123,"count":342,"type":"SCALAR","name":"accessorIndices"},{"bufferView":1,"byteOffset":4824,"componentType":5126,"count":342,"max":[1.06313324,4.74393,1.36307812],"min":[-1.06552374,-1.64824438,-0.0169873238],"type":"VEC3","name":"accessorPositions"},{"bufferView":1,"byteOffset":8928,"componentType":5126,"count":342,"type":"VEC3","name":"accessorNormals"},{"bufferView":2,"byteOffset":1608,"componentType":5126,"count":342,"type":"VEC2","name":"accessorUVs"},{"bufferView":0,"byteOffset":1088,"componentType":5123,"count":2097,"type":"SCALAR","name":"accessorIndices"},{"bufferView":1,"byteOffset":13032,"componentType":5126,"count":2097,"max":[1.88050532,6.904584,3.06161213],"min":[-1.88387656,0.5134475,-0.0264420509],"type":"VEC3","name":"accessorPositions"},{"bufferView":1,"byteOffset":38196,"componentType":5126,"count":2097,"type":"VEC3","name":"accessorNormals"},{"bufferView":2,"byteOffset":4344,"componentType":5126,"count":2097,"type":"VEC2","name":"accessorUVs"},{"bufferView":0,"byteOffset":5284,"componentType":5123,"count":846,"type":"SCALAR","name":"accessorIndices"},{"bufferView":1,"byteOffset":63360,"componentType":5126,"count":846,"max":[1.08118367,2.06929016,3.96781921],"min":[-1.08118367,-1.19426918,-1.66067266],"type":"VEC3","name":"accessorPositions"},{"bufferView":1,"byteOffset":73512,"componentType":5126,"count":846,"type":"VEC3","name":"accessorNormals"},{"bufferView":2,"byteOffset":21120,"componentType":5126,"count":846,"type":"VEC2","name":"accessorUVs"},{"bufferView":0,"byteOffset":6976,"componentType":5123,"count":372,"type":"SCALAR","name":"accessorIndices"},{"bufferView":1,"byteOffset":83664,"componentType":5126,"count":372,"max":[0.882823765,2.93501425,3.45493484],"min":[-0.885212,-1.25156713,-1.720799],"type":"VEC3","name":"accessorPositions"},{"bufferView":1,"byteOffset":88128,"componentType":5126,"count":372,"type":"VEC3","name":"accessorNormals"},{"bufferView":2,"byteOffset":27888,"componentType":5126,"count":372,"type":"VEC2","name":"accessorUVs"},{"bufferView":0,"byteOffset":7720,"componentType":5123,"count":396,"type":"SCALAR","name":"accessorIndices"},{"bufferView":1,"byteOffset":92592,"componentType":5126,"count":396,"max":[0.84637785,0.04141617,0.08579171],"min":[-0.846377969,-0.9035202,-0.08764446],"type":"VEC3","name":"accessorPositions"},{"bufferView":1,"byteOffset":97344,"componentType":5126,"count":396,"type":"VEC3","name":"accessorNormals"},{"bufferView":2,"byteOffset":30864,"componentType":5126,"count":396,"type":"VEC2","name":"accessorUVs"},{"bufferView":0,"byteOffset":8512,"componentType":5123,"count":648,"type":"SCALAR","name":"accessorIndices"},{"bufferView":1,"byteOffset":102096,"componentType":5126,"count":648,"max":[1.32134652,0.779576063,-0.986235142],"min":[-1.32134569,-0.006306827,-1.77211976],"type":"VEC3","name":"accessorPositions"},{"bufferView":1,"byteOffset":109872,"componentType":5126,"count":648,"type":"VEC3","name":"accessorNormals"},{"bufferView":2,"byteOffset":34032,"componentType":5126,"count":648,"type":"VEC2","name":"accessorUVs"},{"bufferView":0,"byteOffset":9808,"componentType":5123,"count":324,"type":"SCALAR","name":"accessorIndices"},{"bufferView":1,"byteOffset":117648,"componentType":5126,"count":324,"max":[1.321346,0.779576063,2.03276944],"min":[1.0839839,-0.006306827,1.2468853],"type":"VEC3","name":"accessorPositions"},{"bufferView":1,"byteOffset":121536,"componentType":5126,"count":324,"type":"VEC3","name":"accessorNormals"},{"bufferView":2,"byteOffset":39216,"componentType":5126,"count":324,"type":"VEC2","name":"accessorUVs"},{"bufferView":0,"byteOffset":10456,"componentType":5123,"count":324,"type":"SCALAR","name":"accessorIndices"},{"bufferView":1,"byteOffset":125424,"componentType":5126,"count":324,"max":[-1.083984,0.779576063,2.032769],"min":[-1.32134616,-0.006306827,1.24688482],"type":"VEC3","name":"accessorPositions"},{"bufferView":1,"byteOffset":129312,"componentType":5126,"count":324,"type":"VEC3","name":"accessorNormals"},{"bufferView":2,"byteOffset":41808,"componentType":5126,"count":324,"type":"VEC2","name":"accessorUVs"},{"bufferView":0,"byteOffset":11104,"componentType":5123,"count":1440,"type":"SCALAR","name":"accessorIndices"},{"bufferView":1,"byteOffset":133200,"componentType":5126,"count":1440,"max":[1.30401421,1.32952261,2.38561559],"min":[-1.30401373,0.113122642,-4.31789827],"type":"VEC3","name":"accessorPositions"},{"bufferView":1,"byteOffset":150480,"componentType":5126,"count":1440,"type":"VEC3","name":"accessorNormals"},{"bufferView":2,"byteOffset":44400,"componentType":5126,"count":1440,"type":"VEC2","name":"accessorUVs"},{"bufferView":0,"byteOffset":13984,"componentType":5123,"count":3315,"type":"SCALAR","name":"accessorIndices"},{"bufferView":1,"byteOffset":167760,"componentType":5126,"count":3315,"max":[1.13892174,1.79679632,3.810165],"min":[-1.13892233,0.139327228,1.90821934],"type":"VEC3","name":"accessorPositions"},{"bufferView":1,"byteOffset":207540,"componentType":5126,"count":3315,"type":"VEC3","name":"accessorNormals"},{"bufferView":2,"byteOffset":55920,"componentType":5126,"count":3315,"type":"VEC2","name":"accessorUVs"},{"bufferView":0,"byteOffset":20616,"componentType":5123,"count":72,"type":"SCALAR","name":"accessorIndices"},{"bufferView":1,"byteOffset":247320,"componentType":5126,"count":72,"max":[0.8532673,1.68442965,3.383502],"min":[-0.905734658,0.858993053,1.92122889],"type":"VEC3","name":"accessorPositions"},{"bufferView":1,"byteOffset":248184,"componentType":5126,"count":72,"type":"VEC3","name":"accessorNormals"},{"bufferView":2,"byteOffset":82440,"componentType":5126,"count":72,"type":"VEC2","name":"accessorUVs"},{"bufferView":0,"byteOffset":20760,"componentType":5123,"count":24,"type":"SCALAR","name":"accessorIndices"},{"bufferView":1,"byteOffset":249048,"componentType":5126,"count":24,"max":[1.23372483,0.4890949,-4.32767],"min":[-1.23372316,0.26587224,-4.327671],"type":"VEC3","name":"accessorPositions"},{"bufferView":1,"byteOffset":249336,"componentType":5126,"count":24,"type":"VEC3","name":"accessorNormals"},{"bufferView":2,"byteOffset":83016,"componentType":5126,"count":24,"type":"VEC2","name":"accessorUVs"},{"bufferView":0,"byteOffset":20808,"componentType":5123,"count":24,"type":"SCALAR","name":"accessorIndices"},{"bufferView":1,"byteOffset":249624,"componentType":5126,"count":24,"max":[0.8396567,0.416747481,3.7374928],"min":[-0.839657664,0.323863268,3.7374928],"type":"VEC3","name":"accessorPositions"},{"bufferView":1,"byteOffset":249912,"componentType":5126,"count":24,"type":"VEC3","name":"accessorNormals"},{"bufferView":2,"byteOffset":83208,"componentType":5126,"count":24,"type":"VEC2","name":"accessorUVs"},{"bufferView":0,"byteOffset":20856,"componentType":5123,"count":87,"type":"SCALAR","name":"accessorIndices"},{"bufferView":1,"byteOffset":250200,"componentType":5126,"count":87,"max":[0.8175181,0.224583149,0.0432451963],"min":[-0.8175182,-0.227438092,-0.0453012],"type":"VEC3","name":"accessorPositions"},{"bufferView":1,"byteOffset":251244,"componentType":5126,"count":87,"type":"VEC3","name":"accessorNormals"},{"bufferView":2,"byteOffset":83400,"componentType":5126,"count":87,"type":"VEC2","name":"accessorUVs"},{"bufferView":0,"byteOffset":21032,"componentType":5123,"count":150,"type":"SCALAR","name":"accessorIndices"},{"bufferView":1,"byteOffset":252288,"componentType":5126,"count":150,"max":[0.845308959,1.8887,2.10872221],"min":[-0.8453094,1.79679632,1.989667],"type":"VEC3","name":"accessorPositions"},{"bufferView":1,"byteOffset":254088,"componentType":5126,"count":150,"type":"VEC3","name":"accessorNormals"},{"bufferView":2,"byteOffset":84096,"componentType":5126,"count":150,"type":"VEC2","name":"accessorUVs"}],"bufferViews":[{"buffer":0,"byteLength":21332,"name":"bufferViewScalar"},{"buffer":0,"byteOffset":21332,"byteLength":255888,"byteStride":12,"name":"bufferViewFloatVec3"},{"buffer":0,"byteOffset":277220,"byteLength":85296,"byteStride":8,"name":"bufferViewFloatVec2"}],"buffers":[{"uri":"ASO_Boarding_Stairs_LOD03.bin","byteLength":362516}],"materials":[{"pbrMetallicRoughness":{"baseColorTexture":{"index":0},"metallicRoughnessTexture":{"index":1}},"normalTexture":{"index":2},"occlusionTexture":{"index":1},"name":"Base"},{"pbrMetallicRoughness":{"baseColorTexture":{"index":3},"metallicRoughnessTexture":{"index":4}},"normalTexture":{"index":5},"occlusionTexture":{"index":4},"name":"Stair"},{"pbrMetallicRoughness":{"baseColorTexture":{"index":6},"metallicRoughnessTexture":{"index":7}},"normalTexture":{"index":8},"occlusionTexture":{"index":7},"name":"Cabine"},{"pbrMetallicRoughness":{"baseColorTexture":{"index":9},"metallicRoughnessTexture":{"index":10}},"occlusionTexture":{"index":10},"alphaMode":"BLEND","name":"Window"},{"pbrMetallicRoughness":{"baseColorTexture":{"index":11},"metallicRoughnessTexture":{"index":12}},"normalTexture":{"index":13},"occlusionTexture":{"index":12},"emissiveFactor":[1.0,0.5235294,0.5],"name":"Backlight_Emi"},{"pbrMetallicRoughness":{"baseColorTexture":{"index":14},"metallicRoughnessTexture":{"index":15}},"normalTexture":{"index":16},"occlusionTexture":{"index":15},"emissiveFactor":[1.0,0.95588243,0.5],"name":"Headlight_Emi"},{"pbrMetallicRoughness":{"baseColorTexture":{"index":17},"metallicRoughnessTexture":{"index":18}},"normalTexture":{"index":19},"occlusionTexture":{"index":18},"emissiveFactor":[0.956834555,0.520183861,0.0],"name":"Gyrolight_O_Emi"}],"textures":[{"source":0,"name":"Boarding_Stairs_Base_Albedo"},{"source":1,"name":"Boarding_Stairs_Base_COMP"},{"source":2,"name":"Boarding_Stairs_Base_Normal"},{"source":3,"name":"Boarding_Stairs_Stairs_Albedo"},{"source":4,"name":"Boarding_Stairs_Stairs_COMP"},{"source":5,"name":"Boarding_Stairs_Stairs_Normal"},{"source":6,"name":"Boarding_Stairs_Cabine_Albedo"},{"source":7,"name":"Boarding_Stairs_Cabine_COMP"},{"source":8,"name":"Boarding_Stairs_Cabine_Normal"},{"source":9,"name":"Window_FullReflection02_Parallax_Albedo"},{"source":10,"name":"Window_FullReflection_COMP"},{"source":0,"name":"Boarding_Stairs_Base_Albedo"},{"source":1,"name":"Boarding_Stairs_Base_COMP"},{"source":2,"name":"Boarding_Stairs_Base_Normal"},{"source":6,"name":"Boarding_Stairs_Cabine_Albedo"},{"source":7,"name":"Boarding_Stairs_Cabine_COMP"},{"source":8,"name":"Boarding_Stairs_Cabine_Normal"},{"source":6,"name":"Boarding_Stairs_Cabine_Albedo"},{"source":7,"name":"Boarding_Stairs_Cabine_COMP"},{"source":8,"name":"Boarding_Stairs_Cabine_Normal"}],"images":[{"uri":"Boarding_Stairs_Base_Albedo.png"},{"uri":"Boarding_Stairs_Base_COMP.png"},{"uri":"Boarding_Stairs_Base_Normal.png"},{"uri":"Boarding_Stairs_Stairs_Albedo.png"},{"uri":"Boarding_Stairs_Stairs_COMP.png"},{"uri":"Boarding_Stairs_Stairs_Normal.png"},{"uri":"Boarding_Stairs_Cabine_Albedo.png"},{"uri":"Boarding_Stairs_Cabine_COMP.png"},{"uri":"Boarding_Stairs_Cabine_Normal.png"},{"uri":"Window_FullReflection02_Parallax_Albedo.png"},{"uri":"Window_FullReflection_COMP.png"}]}