{"accessors":[{"bufferView":0,"componentType":5126,"count":447,"min":[-1.7367069721221924,-1.6482443809509278,-0.02644205093383789],"max":[1.7333362102508546,6.812609672546387,2.7817282676696779],"type":"VEC3","name":"x4_Ramp_End_vertices#0_POSITION"},{"bufferView":0,"byteOffset":12,"componentType":5120,"count":447,"type":"VEC4","name":"x4_Ramp_End_vertices#0_TANGENT"},{"bufferView":0,"byteOffset":16,"componentType":5120,"count":447,"type":"VEC4","name":"x4_Ramp_End_vertices#0_NORMAL"},{"bufferView":0,"byteOffset":20,"componentType":5122,"count":447,"type":"VEC2","name":"x4_Ramp_End_vertices#0_TEXCOORD_0"},{"bufferView":0,"byteOffset":24,"componentType":5122,"count":447,"type":"VEC2","name":"x4_Ramp_End_vertices#0_TEXCOORD_1"},{"bufferView":0,"byteOffset":28,"componentType":5123,"count":447,"type":"VEC4","name":"x4_Ramp_End_vertices#0_COLOR_0"},{"bufferView":1,"componentType":5123,"count":447,"type":"SCALAR","name":"x4_Ramp_End_indices#1"},{"bufferView":0,"byteOffset":16092,"componentType":5126,"count":270,"min":[-0.8852120041847229,-1.2515671253204346,-1.7207989692687989],"max":[0.8828237652778626,2.916069507598877,3.45493483543396],"type":"VEC3","name":"x4_Ramp_Start_vertices#0_POSITION"},{"bufferView":0,"byteOffset":16104,"componentType":5120,"count":270,"type":"VEC4","name":"x4_Ramp_Start_vertices#0_TANGENT"},{"bufferView":0,"byteOffset":16108,"componentType":5120,"count":270,"type":"VEC4","name":"x4_Ramp_Start_vertices#0_NORMAL"},{"bufferView":0,"byteOffset":16112,"componentType":5122,"count":270,"type":"VEC2","name":"x4_Ramp_Start_vertices#0_TEXCOORD_0"},{"bufferView":0,"byteOffset":16116,"componentType":5122,"count":270,"type":"VEC2","name":"x4_Ramp_Start_vertices#0_TEXCOORD_1"},{"bufferView":0,"byteOffset":16120,"componentType":5123,"count":270,"type":"VEC4","name":"x4_Ramp_Start_vertices#0_COLOR_0"},{"bufferView":1,"byteOffset":894,"componentType":5123,"count":270,"type":"SCALAR","name":"x4_Ramp_Start_indices#0"}],"asset":{"generator":"babylon.js glTF exporter for 3dsmax 2019 v1.5.0","version":"2.0","extensions":{"ASOBO_asset_optimized":{"BoundingBoxMax":[1.7333362102508546,6.812609672546387,3.45493483543396],"BoundingBoxMin":[-1.7367069721221924,-1.6482443809509278,-1.7207989692687989],"MajorVersion":4,"MinorVersion":4,"UseCheckerboardMaterialForMissingTextures":true,"UseOnlyFilenameForImageURI":true},"ASOBO_normal_map_convention":{"tangent_space_convention":"DirectX"}}},"bufferViews":[{"buffer":0,"byteLength":25812,"byteStride":36,"target":34962,"name":"BufferViewVertexND"},{"buffer":0,"byteLength":1434,"byteOffset":25812,"target":34963,"name":"BufferViewIndex"}],"extensionsRequired":["MSFT_texture_dds"],"materials":[{"name":"Stair","normalTexture":{"index":2},"occlusionTexture":{"index":1},"pbrMetallicRoughness":{"baseColorTexture":{"index":0},"metallicRoughnessTexture":{"index":1}}},{"name":"Cabine","normalTexture":{"index":5},"occlusionTexture":{"index":4},"pbrMetallicRoughness":{"baseColorTexture":{"index":3},"metallicRoughnessTexture":{"index":4}}}],"meshes":[{"primitives":[{"attributes":{"COLOR_0":5,"NORMAL":2,"POSITION":0,"TANGENT":1,"TEXCOORD_0":3,"TEXCOORD_1":4},"indices":6,"material":0,"mode":4,"extras":{"ASOBO_primitive":{"PrimitiveCount":80,"VertexType":"VTX","VertexVersion":2}}},{"attributes":{"COLOR_0":5,"NORMAL":2,"POSITION":0,"TANGENT":1,"TEXCOORD_0":3,"TEXCOORD_1":4},"indices":6,"material":1,"mode":4,"extras":{"ASOBO_primitive":{"PrimitiveCount":69,"StartIndex":240,"VertexType":"VTX","VertexVersion":2}}}],"name":"x4_Ramp_End"},{"primitives":[{"attributes":{"COLOR_0":12,"NORMAL":9,"POSITION":7,"TANGENT":8,"TEXCOORD_0":10,"TEXCOORD_1":11},"indices":13,"material":0,"mode":4,"extras":{"ASOBO_primitive":{"PrimitiveCount":90,"VertexType":"VTX","VertexVersion":2}}}],"name":"x4_Ramp_Start"}],"nodes":[{"translation":[0.0,0.0,0.0],"rotation":[0.0,0.0,0.0,1.0],"scale":[1.0,1.0,1.0],"extensions":{"ASOBO_animation_retargeting":{"id":"SOL"}},"name":"SOL","children":[1,6,7,8,9,11,13,15,17,18,19,20,21]},{"translation":[0.0,1.35827959,-2.71682644],"rotation":[0.0703595653,0.0,0.0,0.9975217],"scale":[1.0,1.0,1.0],"extensions":{"ASOBO_animation_retargeting":{"id":"Rotation_CTRL"}},"name":"Rotation_CTRL","children":[2,5]},{"translation":[0.0,0.372752547,-0.03481269],"rotation":[0.445339,0.0,0.0,0.895362],"scale":[1.0,0.999999762,0.999999762],"extensions":{"ASOBO_animation_retargeting":{"id":"Deployment_CTRL"}},"name":"Deployment_CTRL","children":[3,4]},{"translation":[0.0,6.260292,2.65373564],"rotation":[-0.445339054,0.0,0.0,0.895362],"scale":[1.0,1.00000024,1.00000024],"extensions":{"ASOBO_animation_retargeting":{"id":"TARGET_DOOR"}},"name":"TARGET_DOOR"},{"translation":[0.0,2.38418579e-7,-2.38418579e-7],"rotation":[0.0,0.0,0.0,1.0],"scale":[1.0,1.00000024,1.00000024],"mesh":0,"extensions":{"ASOBO_animation_retargeting":{"id":"x4_Ramp_End"}},"name":"Ramp_End"},{"translation":[0.0,1.1920929e-7,0.0],"rotation":[0.0,0.0,0.0,1.0],"scale":[1.0,1.0,1.0],"mesh":1,"extensions":{"ASOBO_animation_retargeting":{"id":"x4_Ramp_Start"}},"name":"Ramp_Start"},{"translation":[0.0,1.935182,1.0919714],"rotation":[-0.126718327,0.0,0.0,0.99193877],"scale":[1.0,1.0,1.0],"extensions":{"ASOBO_animation_retargeting":{"id":"Pistons_2_CTRL"}},"name":"Pistons_2_CTRL"},{"translation":[0.0,0.402,-1.379],"rotation":[-0.0000114440918,0.0,0.0,1.0],"scale":[1.0,1.0,1.0],"extensions":{"ASOBO_animation_retargeting":{"id":"Wheel_BACK_Ctrl"}},"name":"Wheel_BACK_Ctrl"},{"translation":[-0.317009032,0.288653731,2.45944452],"rotation":[0.0,0.0,0.0,1.0],"scale":[1.0,1.0,1.0],"extensions":{"ASOBO_animation_retargeting":{"id":"PILOT_0"}},"name":"PILOT_0"},{"translation":[1.211,0.402,1.63999987],"rotation":[-0.0000114440918,4.065758e-20,-3.55271368e-15,1.0],"scale":[1.0,1.0,1.0],"extensions":{"ASOBO_animation_retargeting":{"id":"Wheel_LEFT_FRONT_Ctrl001"}},"name":"Wheel_LEFT_FRONT_Ctrl001","children":[10]},{"translation":[0.0,0.0,1.1920929e-7],"rotation":[-0.0000114440918,0.0,0.0,1.0],"scale":[1.0,1.0,1.0],"extensions":{"ASOBO_animation_retargeting":{"id":"Wheel_LEFT_FRONT_Ctrl"}},"name":"Wheel_LEFT_FRONT_Ctrl"},{"translation":[-1.211,0.402,1.63999987],"rotation":[0.0,0.0,-1.42108547e-14,1.0],"scale":[1.0,1.0,1.0],"extensions":{"ASOBO_animation_retargeting":{"id":"Wheel_RIGHT_FRONT_Ctrl001"}},"name":"Wheel_RIGHT_FRONT_Ctrl001","children":[12]},{"translation":[0.0,0.0,0.0],"rotation":[-2.38418579e-7,0.0,0.0,1.0],"scale":[1.0,1.0,1.0],"extensions":{"ASOBO_animation_retargeting":{"id":"Wheel_RIGHT_FRONT_Ctrl"}},"name":"Wheel_RIGHT_FRONT_Ctrl"},{"translation":[-0.782557845,1.93066835,2.04514623],"rotation":[0.0,0.0,0.0,1.0],"scale":[1.0,1.0,1.0],"extensions":{"ASOBO_animation_retargeting":{"id":"Gyrolight_Ctrl001"}},"name":"Gyrolight_Ctrl001","children":[14]},{"translation":[0.0,2.38418579e-7,0.0],"rotation":[-5.96046448e-8,-0.258819,-2.98023224e-8,0.9659259],"scale":[1.0,1.0,1.0],"extensions":{"ASOBO_animation_retargeting":{"id":"Gyrolight_O1"},"ASOBO_macro_light":{"color":[1.0,0.5884637,0.000001],"cone_angle":120.0,"day_night_cycle":false,"flash_duration":0.0,"flash_frequency":0.0,"flash_phase":0.0,"has_simmetry":false,"intensity":2.0,"rotation_speed":0.0}},"name":"Gyrolight_O1"},{"translation":[0.786193,1.93066835,2.04514623],"rotation":[0.0,0.0,0.0,1.0],"scale":[1.0,1.0,1.0],"extensions":{"ASOBO_animation_retargeting":{"id":"Gyrolight_Ctrl002"}},"name":"Gyrolight_Ctrl002","children":[16]},{"translation":[0.0,0.0,0.0],"rotation":[-1.1920929e-7,0.258819044,0.0,0.9659258],"scale":[1.0,1.0,1.0],"extensions":{"ASOBO_animation_retargeting":{"id":"Gyrolight_O2"},"ASOBO_macro_light":{"color":[1.0,0.5884637,0.000001],"cone_angle":120.0,"day_night_cycle":false,"flash_duration":0.0,"flash_frequency":0.0,"flash_phase":0.0,"has_simmetry":false,"intensity":2.0,"rotation_speed":0.0}},"name":"Gyrolight_O2"},{"translation":[0.0,1.913487,1.09760618],"rotation":[-0.126718327,0.0,0.0,0.99193877],"scale":[1.0,1.00000024,1.00000024],"extensions":{"ASOBO_animation_retargeting":{"id":"Pistons_1_CTRL"}},"name":"Pistons_1_CTRL"},{"translation":[-0.7641349,0.374503374,3.79103136],"rotation":[-5.96046448e-8,0.0,0.0,0.99999994],"scale":[1.0,1.0,1.0],"extensions":{"ASOBO_animation_retargeting":{"id":"Headlight_R"},"ASOBO_macro_light":{"color":[1.0,0.976548731,0.735647857],"cone_angle":120.0,"day_night_cycle":false,"flash_duration":0.0,"flash_frequency":0.0,"flash_phase":0.0,"has_simmetry":false,"intensity":5.0,"rotation_speed":0.0}},"name":"Headlight_R"},{"translation":[0.75177,0.374503374,3.79103136],"rotation":[-5.96046448e-8,0.0,0.0,0.99999994],"scale":[1.0,1.0,1.0],"extensions":{"ASOBO_animation_retargeting":{"id":"Headlight_L"},"ASOBO_macro_light":{"color":[1.0,0.976548731,0.735647857],"cone_angle":120.0,"day_night_cycle":false,"flash_duration":0.0,"flash_frequency":0.0,"flash_phase":0.0,"has_simmetry":false,"intensity":5.0,"rotation_speed":0.0}},"name":"Headlight_L"},{"translation":[-1.11672032,0.342846155,-4.41372252],"rotation":[1.0,0.0,0.0,1.49011612e-7],"scale":[1.0,1.0,1.0],"extensions":{"ASOBO_animation_retargeting":{"id":"Backlight_R"},"ASOBO_macro_light":{"color":[1.0,0.0472351052,0.000001],"cone_angle":90.0,"day_night_cycle":false,"flash_duration":0.0,"flash_frequency":0.0,"flash_phase":0.0,"has_simmetry":false,"intensity":1.0,"rotation_speed":0.0}},"name":"Backlight_R"},{"translation":[1.10858476,0.3450115,-4.413722],"rotation":[1.0,0.0,0.0,1.49011612e-7],"scale":[1.0,1.0,1.0],"extensions":{"ASOBO_animation_retargeting":{"id":"Backlight_L"},"ASOBO_macro_light":{"color":[1.0,0.0472351052,0.000001],"cone_angle":90.0,"day_night_cycle":false,"flash_duration":0.0,"flash_frequency":0.0,"flash_phase":0.0,"has_simmetry":false,"intensity":1.0,"rotation_speed":0.0}},"name":"Backlight_L"}],"scene":0,"scenes":[{"nodes":[0]}],"textures":[{"extensions":{"MSFT_texture_dds":{"source":0}}},{"extensions":{"MSFT_texture_dds":{"source":1}}},{"extensions":{"MSFT_texture_dds":{"source":2}}},{"extensions":{"MSFT_texture_dds":{"source":3}}},{"extensions":{"MSFT_texture_dds":{"source":4}}},{"extensions":{"MSFT_texture_dds":{"source":5}}}],"extensionsUsed":["ASOBO_normal_map_convention","ASOBO_animation_retargeting","ASOBO_macro_light","MSFT_texture_dds","ASOBO_asset_optimized"],"buffers":[{"byteLength":27246,"uri":"ASO_Boarding_Stairs_LOD04.bin"}],"images":[{"uri":"BOARDING_STAIRS_STAIRS_ALBEDO.PNG.DDS","extras":"ASOBO_image_converted_meta"},{"uri":"BOARDING_STAIRS_STAIRS_COMP.PNG.DDS","extras":"ASOBO_image_converted_meta"},{"uri":"BOARDING_STAIRS_STAIRS_NORMAL.PNG.DDS","extras":"ASOBO_image_converted_meta"},{"uri":"BOARDING_STAIRS_CABINE_ALBEDO.PNG.DDS","extras":"ASOBO_image_converted_meta"},{"uri":"BOARDING_STAIRS_CABINE_COMP.PNG.DDS","extras":"ASOBO_image_converted_meta"},{"uri":"BOARDING_STAIRS_CABINE_NORMAL.PNG.DDS","extras":"ASOBO_image_converted_meta"}]}
